<svg xmlns="http://www.w3.org/2000/svg" xml:space="preserve" id="Calque_1" x="0" y="0" style="enable-background:new 0 0 1920 1080" version="1.1" viewBox="0 0 1920 1080"><style>.st0{fill:#fff}.st1{fill:#010101}.st2{fill:#ffcc03}.st3{fill:#fdfdfd}</style><path d="M1183.6 857.6h128.2v81.3h-128.2z" class="st0"/><path d="M1337.8 553.8c3.9 220.6-176.3 392.6-400.1 392.5-225.8-.2-399.8-169.3-400.1-390.7-.3-220.2 173.2-386.5 400.1-388.3 223.3-1.8 396.3 171.1 400.1 386.5z" class="st0"/><path d="m802.1 955.5-.4-.5c-.8-.9-1.7-1.9-2.7-3.1l-1.4-1.6v-.6c1.2-20.1 2.4-41.5 3.5-63.1.1-2.2 1.1-3.8 2.1-5.3 44.3-67.1 85.8-137.7 125.9-205.9 5.5-9.3 10.9-18.6 16.4-27.8 14.1-23.8 29-48.2 44.4-72.4.5-.7.9-1.5 1.5-2.4-18.4-9.8-36.9-19.7-55-29.3l-.8-.4v-.9c0-.3 0-.4-.1-.6l-.4-1.4 1.4-.4c27.9-7.1 56.7-14.4 85.7-21.8 27.6-41.8 54.1-85.3 79.8-127.4 28.4-46.7 57.9-94.9 89-141.3l-337.5-2.1c-6.8 33-16.2 65.8-24.5 94.7l-.3 1-1 .1c-4.6.3-8.7.5-12.8.5-4.9 0-9.6-.2-14.3-.7l-1.4-.1 2.4-187h533l.4.5c.9 1 1.9 2.2 3 3.5l1.1 1.4V222c0 1.9-.5 3.5-1.6 5.1-33.7 47.6-64.4 98.1-94.1 147-11.7 19.2-23.7 39.1-35.8 58.5-22.4 35.9-40.2 63.2-57.6 88.3-.2.3-.4.6-.7 1 9.3 2.9 18.5 5.9 27.7 8.8 10.3 3.3 20.5 6.5 30.8 9.8l1 .3v1.3c0 .2.1.4.1.6v1.1l-1 .4c-30.9 11.2-61.9 22.5-93.4 33.9-38.6 65.8-77.3 131.6-116 197.6L949 859.9h325.4c1.8-5.4 3.7-10.8 5.6-16.2 10.2-29.7 20.8-60.4 27.4-91.6l.3-1.2h29.1l-.1 1.6c-1.2 19-2.5 38.4-3.8 57.1-3.2 46.3-6.5 94.1-7.3 142v.2l-.1.2c-.3.8-1 1.4-2 2.2-.4.3-.8.7-1.2 1l-.4.4-519.8-.1z"/><path d="M1334.1 157.2c1.1 1.2 2.3 2.7 3.7 4.4V222c0 1.6-.4 2.9-1.3 4.2-46.9 66.3-87.1 136.8-129.9 205.6-18.6 29.8-37.6 59.4-57.6 88.2-.5.7-.9 1.4-1.7 2.7 20.3 6.4 40.3 12.8 60.3 19.1 0 .3.1.6.1.8-31.1 11.3-62.2 22.6-93.9 34.1-55.5 94.6-111.2 189.4-167.1 284.6h329.1c12.3-36.2 25.5-71.8 33.4-109h26.3c-4 66.1-10 131.9-11.1 199.1-.2.6-1.6 1.5-2.8 2.6H802.8c-1.1-1.2-2.3-2.6-3.7-4.2 1.2-20.9 2.4-42 3.5-63.1.1-1.8.9-3.2 1.8-4.5 50.3-76.2 96-155.2 142.3-233.8 14.4-24.4 29.2-48.5 44.4-72.4.7-1.1 1.4-2.2 2.3-3.8-18.9-10.1-37.7-20.1-56.4-30 0-.3 0-.6-.1-1 28.7-7.3 57.4-14.6 86.3-21.9 58.8-88.9 110.6-182.4 170.7-271.5-114.1-.7-227.7-1.4-341.5-2.1-6.6 32.5-15.6 64.1-24.7 95.8-4.2.3-8.4.5-12.7.5-4.6 0-9.3-.2-14.2-.7.8-61.4 1.6-122.6 2.4-184.1h530.9m1.3-3H800.2v3l-1.4 110.5-1 73.6v2.8l2.8.3c4.8.5 9.5.7 14.5.7 4.1 0 8.3-.2 12.9-.5l2.1-.1.6-2c8.2-28.6 17.5-61 24.3-93.6l95 .6 238.5 1.5c-30.6 45.7-59.5 93.1-87.5 139.1-25.5 41.9-52 85.3-79.4 126.9-28.6 7.2-57.4 14.5-85.2 21.6l-2.9.7.7 2.9v2.1l1.6.8c17.7 9.4 35.7 19 53.6 28.5-.2.3-.4.7-.6 1-15.4 24.2-30.4 48.6-44.5 72.5-5.5 9.3-10.9 18.5-16.4 27.8-40.1 68.2-81.5 138.7-125.8 205.8-1.1 1.5-2.2 3.5-2.3 6-1.1 21.5-2.3 42.9-3.5 63.1l-.1 1.2.8.9 1 1.2c1 1.1 1.9 2.1 2.7 3.1l.9 1h521.3l.9-.8c.4-.3.8-.6 1.1-1 1.1-.9 2.1-1.7 2.5-2.9l.1-.4v-.5c.8-47.8 4.1-95.6 7.3-141.9 1.3-18.7 2.6-38 3.8-57.1l.2-3.2h-31.9l-.5 2.4c-6.6 31.1-17.2 61.8-27.4 91.4-1.7 5-3.5 10.1-5.2 15.2H951.9c15.8-26.8 31.5-53.6 47.2-80.4 38.3-65.2 77.9-132.6 116.7-198.8 31.3-11.4 62.1-22.6 92.9-33.7l2-.7v-2.1c0-.4-.1-.7-.1-.9v-2.1l-2.1-.7c-10.2-3.2-20.7-6.5-30.8-9.7-8.6-2.7-17.1-5.4-25.8-8.2 17.3-25 35-52 57.2-87.6 12.1-19.4 24.1-39.3 35.8-58.5 29.7-48.9 60.4-99.4 94-147 1.3-1.8 1.9-3.7 1.9-5.9v-61.5l-.7-.8-.8-1c-1.1-1.4-2.1-2.5-3-3.5l-.9-1.1z" class="st0"/><path d="M1225.7 719.2c12.3-11.5 24.4-22.7 36.8-34.3-17.2-16.7-33.3-32.3-49.3-47.9-2.5.7-3 3.3-6 4.5v-46.3c-.4-.1-.9-.2-1.3-.3-15.9 16.5-31.8 33-48 49.7.6 35.6 1.2 71.4 1.8 107.6-4.7 4.4-9.6 8.9-14.8 13.8-4.3-4.1-9.1-8.6-14.7-13.9v-69.3c-3.4-3.2-6.2-5.8-9.2-8.7 7.3-7.7 14.5-15.3 22.1-23.2-12.5-12.1-24.8-24-37.3-36-7.9 7.3-14.7 15.6-22.6 22.7-.2-.2-.5-.5-.7-.8 11.2-18.9 22.5-37.8 33.8-56.9 34.3-12.5 68.7-24.9 103-37.3v-.9c-21.9-6.9-43.9-13.9-66.3-21 40.3-58.1 76-118.6 113.1-179.2 37.4 57.1 58.9 119.1 63.8 186.7 6.1 84.5-13.6 162.8-57.9 235.5-15.5-14.9-30.4-29.3-46.3-44.5zM1049.9 447.9c2.8 3.3 5.5 6.6 8.6 10.2-8.4 13.2-16.4 26.7-25.4 39.6-.9-1.2-1.8-2.4-2.6-3.6-25.1-36.6-68.9-55.1-112.1-45.6-44.9 9.9-74.4 37.9-84.7 82.7-10.3 45 4.3 82.8 40.5 111.7 17 13.6 37 20 58.5 22.1-8.1 13.9-16.2 27.8-24.3 41.9-20-4-38.2-11.5-54.9-22.7-5.4-3.6-10.4-7.6-15.6-11.5l.2.2c-.5-.7-.9-1.9-2.2-1l.1.1c-2.6-5.1-7.9-7.8-11.3-12.3-.6-.8-1.1-2.4-2.8-1.8l.1.1c.9-1.3-.2-1.7-1-2.2l.1.1c-1.2-1.6-1.7-3.9-4.2-4.1l.1.1c.9-2-1.1-2.8-1.9-3.9-28.9-40.3-37.6-84.5-25.4-132.7C795 494.6 805 476 818.1 459l-.1.1c1.7-2 3.4-4.1 5.1-6.1l-.1.1c.7-.6 1.9-.9 1-2.2l-.1.1c1.3.6 1.4-.1 1.2-1.1l-.2.1c3.9-2.2 6.9-5.2 9.1-9.1l-.1.1c1.3.9 1.6-.4 2.2-1l-.1.1c.6-.2 1-.5 1.1-1.1l-.1.1c1.1-.8 2.2-1.5 3.2-2.3 27.4-22.5 58.9-34.5 94.2-35.5 33.3-1 64 8.2 91.7 26.9 1.2.8 2.1 2.6 4.1 1.9l-.2-.1c.5 2.2 1.9 3.2 4.1 3.1l-.1-.1c.1 2.6 2.7 2.8 4.1 4.2l-.1-.1c2.6 2.5 5.1 5.1 8.1 7.1l-.1-.1c.1.7.4 1.1 1.2 1.1l-.2-.1c.4 1 1.1 1.8 2.1 2.1l-.1-.1c.1.7.4 1.1 1.2 1.1l-.3-.3z" class="st1"/><path d="M1258.2 783.2c-11.1 16.5-24.1 31.4-37.8 45.7-9.7 10.1-20 19.6-31.1 28.7H952.7c39.7-67.6 79.3-135 119.2-202.8 6.4 7.2 12.7 14.2 19.2 21.5-7.8 8.3-17 17.9-26.3 27.8 5.3 5 10.4 9.7 15.7 14.7v35.9c-4.3 4-9.6 8.8-15.1 13.8 13.9 13.6 27.4 26.8 41.1 40.2 13-13.5 25.8-26.7 39-40.3 13.2 12.9 26.3 25.7 38.9 37.9 8.4-7.6 16.7-15.2 25.6-23.2 7.5 7.3 15.5 15.2 23 22.5 8.3-8 16.5-15.7 24.6-23.5.1.4.4.8.6 1.1zM771 189.1c2.9.5 4.9-1.5 7.3-2.5 6.6-2.7 13.1-5.6 20.2-8v11.9c-88.8 35.7-157.2 94.9-203.3 179.1-35.5 64.8-50.9 134.5-47.2 208.2 8.1 158.3 110.5 291.9 248 344.9.2 2.8.1 5.8-.4 8.9-5.8-1.7-11.1-4.1-16.4-6.5-125.1-57.4-204.6-152.9-233.6-287.4-39.1-181.7 52.5-364.6 220-445.3 1.2-.6 2.9-.6 3.4-2.4l-.1.1c1.2.5 2 .5 2.1-1.1v.1z" class="st1"/><path d="M770.1 190c-2.1-.2-3.3-1.8-4.6-3.1-7-6.9-14-13.7-20.9-20.6l-1.1-1.1c-.2-.3-.4-.5-.7-.6l-1-1c-.5-.6-1-1.4-2.1 0 .4.2.8.4 1.2.7.1.6.4.9 1 1 .1.6.4.9 1 1 .1.6.4.9 1 1 .2.8.3 1.5-.4 2.2-6.6 7-13.2 14-20.4 21.6-4.6-5.2-8.2-9.3-12.5-14.2-4.2 5-7.9 9.4-11.8 14.1-10.2-9.9-19.2-18.8-28-27.4-7.4 9.4-16.9 17.1-24.7 25.6-8.5-8.2-16.8-16.2-25.3-24.3 3.2-2.9 6.4-5.8 9.2-8.3V90.2c10.6-10.6 20.6-20.5 30.8-30.7v49c8-8.2 15.5-15.8 23.3-23.7l15.7 15.7c5-5.2 9.8-10.1 14.6-15 8.4 8.5 16.5 16.8 24.7 25 .3-.2.7-.4 1.1-.6V90.1c10.6-10.7 20.5-20.7 31-31.2V87c9.7 9.4 19.5 18.9 29.1 28.1v43.8c-8.7 8.7-17.6 17.5-26.3 26.4-.9.9-3.4 1.5-1.6 3.7l.1-.1c-1.6-1.4-2-.5-2.1 1.1h-.3zM699 177c3.6-4.3 7.3-8.7 11.5-13.6 4.4 4.8 8.1 8.9 11.9 13.1 2.8-3.1 5.3-5.7 8-8.7-3.1-3.4-6.7-7.3-10-10.9v-40.8c1.8-1.9 3.5-3.7 5.3-5.6-3.8-3.7-7.4-7.3-11.2-11-3.5 3.6-7.1 7.2-10.9 11 1.8 2 3.5 3.9 5 5.7v31c-4.7 5.1-8.5 9.1-12.2 13.1-2.1-1.9-4.2-3.8-6.1-5.5v-38.7c1.8-1.9 3.5-3.7 5.3-5.6-3.8-3.8-7.4-7.4-11-10.9-3.7 3.6-7.3 7.2-11.1 10.9 1.9 2.1 3.6 4 5.3 6v41.3c6.3 5.8 12.5 11.8 20.2 19.2zm51-20.1c6.6 6.6 12.8 12.7 18.9 18.8 6.9-7 14-14.2 21.2-21.5v-33c-7.7-7.9-14.3-14.6-20.9-21.4-2.7 1.8-4.4 5.2-8.2 7V83.6c-3.4 3.2-6.9 6.6-11 10.5v62.8zM639.2 93.8v65.8c-1.8 1.9-3.4 3.5-5.1 5.4 3.9 3.6 7.7 7.1 11.2 10.2 3.3-3.2 7.1-6.8 11.5-10.9-2.2-1.6-4.2-3.1-6-4.5V82.3c-4.1 4-7.8 7.6-11.6 11.5zm90.9 26.2v33.2c3.3 2.9 5.8 6.8 9.6 9.5V111c-3.3 3.1-6.5 6-9.6 9zm-61 43.7v-42.4c-3.3-3.4-5.8-5.9-8.3-8.4v41.6c3 3.2 5.2 5.8 8.3 9.2z"/><path d="M1206.8 857.3h-12.2c75.2-65.8 121.3-147.1 135.2-245.5 13.9-98.5-8-189.5-62-273.3 1.7-2.8 3.5-5.7 5.4-8.7 110.4 155.6 91.5 388.8-66.4 527.5z" class="st1"/><path d="M1173.3 649.6c5.8-5.1 12-10.6 18.6-16.5v46.2c7.7-7 14.7-13.4 22-20.1 7.8 8.3 16 17.2 25.3 27.1-11.2 10.4-23.2 21.7-35.7 33.2 16.4 15.8 32 30.8 47.9 46.1-6.5 5.8-12.9 11.6-19.3 17.3-4.8-4.9-10.6-10.9-16.5-17 2.1-3.8 6.5-6.4 9.2-10.6-10.3-9.9-20.6-19.8-31.3-30v31.6c3.3 3.5 6 6.5 9.2 9.9-6.3 5.5-12.7 11.1-19.2 16.8-4.5-4.7-10.2-10.7-16.3-17 1.7-2.9 5.3-5.2 8-8.9-.6-35.3-1.2-70.9-1.9-108.1zm46.4 47.9c-6.4-7.2-12-13.3-17.1-19-3.7 3.3-6.9 6.1-9.4 8.3v35.1c9-8.3 18-16.6 26.5-24.4z" class="st1"/><path d="M594.8 113.4v30.1c3.1-3.7 5.8-6.8 8.3-9.8 8 8.3 15 15.6 22 22.8-10.5 10.5-21.7 21.8-32.8 33-9.3-9.4-18.6-18.9-28.5-28.9V96c10.1-10.3 19.8-20.1 29.2-29.6 11.2 11 22.5 22 33.7 33-7.5 7.5-15 14.9-22.8 22.6-2.7-3-5.4-6.1-8.2-9.1-.2.2-.5.3-.9.5zm18.4-13.8c-6.7-6.6-13.4-13.1-19.8-19.4-6.5 6.3-13.2 12.9-19.9 19.4V156c7 7.1 13.2 13.4 18.9 19.3 6.4-6.4 13-13.1 19.2-19.4-2.3-2.4-4.9-5.2-8.3-8.8-3.9 4.4-7.9 8.9-11.7 13.1-2.5-2.3-4.5-4.2-6.4-5.9V88.7c7 7 13.1 13.2 19 19.3 3.2-2.9 6.1-5.7 9-8.4z"/><path d="M932.7 665.1c-21.5-2.1-41.5-8.6-58.5-22.1-36.2-28.9-50.8-66.7-40.5-111.7 10.2-44.8 39.7-72.8 84.7-82.7 43.2-9.5 87.1 9 112.1 45.6.8 1.2 1.8 2.4 2.6 3.6-.6 1.7-1.6 3.2-3.2 4.7-3-4.6-5.8-9.1-9.3-13.1-28.6-32.6-64.4-45.3-106.4-34.5-42.2 10.8-68.1 39.3-76.6 82-6.5 32.8 2.4 62.3 24.2 87.7.9 1.1 1.4 4.2 4.3 2.4l-.1-.1c-1.9 2.2.6 2.8 1.5 3.7 13.5 13 29.3 21.8 47.5 26.3 6.6 1.7 13.3 2.4 20.2 3.1-.2 2.3-1.5 3.6-2.5 5.1z" class="st2"/><path d="M1113.7 688.5c.4 23.5.8 46.8 1.3 70.5 2.8 2.7 5.9 5.7 9.5 9.1-6.5 5.9-12.8 11.6-18.9 17.2-5.2-5.4-11-11.5-17-17.7 2-2.1 4.8-5 7.3-7.6v-48c-3.1-3-5.9-5.6-9-8.6 6.7-7 13.3-13.9 20.2-21.1 2.3 2.2 4.4 4.2 6.6 6.2zM1050.5 250.9h25.3c-19.2 26.3-37.9 51.9-57.1 78.3-1.7-4.7-2.2-8.2-.1-12.4 10.8-21.7 21.2-43.6 31.9-65.9zM1120.3 652.3c-4.4 4-9.2 8.5-14.5 13.3-4.4-4.2-9.3-8.9-14.5-13.8 4.9-5.2 9.6-10 14.5-15.2 4.9 5.3 9.6 10.4 14.5 15.7zM1000.9 250.6h20.2c-4.6 9.5-9 18.5-13.9 28.5-2.2-10-4.2-19-6.3-28.5zM797.3 334.9c.9 2.9.4 5 .1 7.2-.2-2.1-.9-4.3-.1-7.2zM630.5 364.6c-.7-.3-1.5-.6-2.2-.9 1.1-1.3 2.1-.9 3 0-.3.3-.5.6-.8.9zM1259.7 781.5c-.5.6-.9 1.2-1.4 1.8-.3-.4-.6-.7-.8-1.1.3-.6.6-1.2 1.4-1.3.2.2.5.4.8.6z" class="st1"/><path d="M631.7 365.3c-.4-.2-.8-.5-1.2-.7.2-.3.5-.6.8-.8.4.1.8.3 1.2.5-.3.3-.5.6-.8 1zM1258.8 780.8c.1-.5.3-.8.9-.6.4.4.2.8-.1 1.2-.2-.1-.5-.3-.8-.6z" class="st1"/><path d="M721.5 757.1c15-16.8 30-33.5 45-50.3 6-6.7 11.9-13.5 18.2-20.6 11.3 13.4 24.2 24.9 38.8 35-2.5 5.4-4.8 10.7-7.6 15.7-2.6 4.7-3.7 9.5-3 14.8.5 3.4.5 6.8 1.2 10.3 6.8-11.1 14.6-21.5 17.9-34.8 6.1 3.4 11.7 6.5 17.8 9.9-29.7 50.5-59 101.1-89.9 151.4-12.6-6.8-24.2-14.6-35.9-21.7-.3-2 .8-3.1 1.4-4.4 22.9-47.3 45.8-94.6 68.8-142 .8-1.6 1.5-3.3 2.3-5 .1-.4.1-.8.2-1.2-.7-.4-1 0-1.2.4-14.1 15.7-28.2 31.4-42.3 47.2-21.6 24.2-43.1 48.5-64.7 72.8-.7.7-1.3 1.5-2.1 2.2-7.6-7.8-15-15.6-22.8-23.6 35.2-48.2 70.8-96.9 106.6-146 2.4 3.5 4.6 6.5 7 9.9-7.4 10.2-14.8 20.2-22 30.3-11.6 16-23.2 32.1-34.7 48.2-.5.6-.9 1.1-1.4 1.7-.5.4.5 1.8 1 1 .9-.1 1.2-.6 1.4-1.2zM742.2 603c2.2 9.1 5.1 17.1 8.3 25.4-7.8 5.1-15.5 10.1-23.3 15.1.1.3.3.7.4 1 8.5-2.6 16-7.7 24.8-11 1.2 2.5 2.3 5 3.6 7.8-9.7 4.6-19.1 9.1-28.5 13.6-16.4 7.8-32.6 15.9-49.2 23.2-21.8 9.6-40.6 24-60.7 36.4-5.4 3.3-10.7 6.8-16.4 10.5-4.3-7.4-7.2-15.3-11.2-23.3 50.7-32.8 101.1-65.6 152.2-98.7zM562.6 594.2c-.7-9.2-1.2-17.6-1.9-26.7 58.6-3.2 116.9-6.4 175.9-9.6.2 8.7.9 17.3 2.1 26.6-58.6 3.2-117.1 6.4-176.1 9.7zM566.3 489.5c.8-4.1 1.5-7.6 2.3-11.7 59.4 4.3 118.6 8.5 178.3 12.8-1.1 4.1-2.1 7.8-3.2 11.9-59.1-4.4-118-8.7-177.4-13zM737.4 537.1c-.2 3.9-.4 7.4-.7 11.7-57.7-13.8-115-27.5-172.4-41.1-1.1-2.1-.1-4 .1-6 .2-1.8.6-3.5 1.1-5.9 57.3 13.7 114.3 27.4 171.9 41.3zM847.2 681.4c-16.9-11.7-30-26.9-40.9-44.3-6.1-9.8-11-20.2-14.6-31.1-11.8-36.4-11.4-72.6 2.7-108.2.4-1.1.1-3.1 2.3-3-7.9 19.9-12.6 40.4-12.1 62 1.1 49.7 21.3 90.1 59.7 121.4 3 2.7 6.4 4 2.9 3.2zM1030.1 430c-2 .7-2.9-1.1-4.1-1.9-27.7-18.7-58.3-27.9-91.7-26.9-35.3 1.1-66.8 13.1-94.2 35.5-1 .8-2.1 1.6-3.2 2.3-.1-2.4 2.1-3 3.5-4.1 24-19.4 51.3-31 82.1-34.1 38.3-3.9 73.2 5.3 105 26.9.9.7 2.1 1.1 2.6 2.3z" class="st3"/><path d="M836 672.1c-5.4-4-10-8.8-14.1-14.1 1.7-.6 2.2 1 2.8 1.8 4.9 6 21.7 19.6 11.3 12.3z" class="st0"/><path d="M834 440.9c-2.2 3.9-5.2 6.9-9.1 9.1 2.5-3.6 5.6-6.5 9.1-9.1zM1046 444.1c-3-2-5.5-4.6-8.1-7.1 3.9 1 6.4 3.6 8.1 7.1zM823.1 453c-1.7 2-3.4 4.1-5.1 6.1.3-3.2 2.1-5.2 5.1-6.1zM816.9 652c2.5.2 3 2.5 4.2 4.1-2.6-.2-3-2.6-4.2-4.1z" class="st3"/><path d="M1038 437.1c-1.4-1.4-3.9-1.6-4.1-4.2 1.7 1.1 4.1 1.5 4.1 4.2z" class="st3"/><path d="M1034.1 433c-2.2.1-3.6-1-4.1-3.1 1.6.7 3.1 1.6 4.1 3.1zM1049 447.1c-1-.4-1.8-1.1-2.1-2.1 1.7-.3 2.5.4 2.1 2.1zM824 450.9c.9 1.3-.4 1.6-1 2.2-1-1.3.2-1.7 1-2.2zM836.1 440c-.6.6-.9 1.9-2.2 1 .5-.8.9-2 2.2-1z" class="st3"/><path d="M838.1 673c-1.3.9-1.7-.2-2.2-1 1.3-.9 1.6.3 2.2 1z" class="st0"/><path d="M821 655.9c.8.5 2 .9 1 2.2-.8-.5-1.9-.9-1-2.2zM1047.1 445.1c-.7-.1-1.1-.4-1.2-1.1 1.2-.5 1.6-.1 1.2 1.1zM825.1 449.9c.3 1 .2 1.7-1.2 1.1.1-.6.4-1.1 1.2-1.1zM1050.1 448.1c-.7-.1-1.1-.5-1.2-1.1 1.3-.5 1.6-.1 1.2 1.1zM837.1 439c-.1.6-.6 1-1.1 1.1-.6-1.3-.2-1.7 1.1-1.1zM769.9 190.1c.1-1.5.5-2.5 2.1-1.1 0 1.6-.9 1.6-2.1 1.1z" class="st3"/><path d="M699 177c-7.7-7.4-13.9-13.4-20.1-19.4v-41.3c-1.7-1.9-3.5-3.9-5.3-6 3.8-3.7 7.4-7.3 11.1-10.9 3.6 3.6 7.2 7.2 11 10.9-1.8 1.9-3.5 3.7-5.3 5.6v38.7c1.9 1.7 4 3.6 6.1 5.5 3.7-3.9 7.5-8 12.2-13.1v-31.1c-1.5-1.7-3.3-3.7-5-5.7 3.7-3.8 7.3-7.4 10.9-11 3.8 3.7 7.4 7.3 11.2 11-1.8 1.9-3.5 3.7-5.3 5.6v40.8c3.3 3.6 6.9 7.5 10 10.9-2.7 2.9-5.2 5.6-8 8.7-3.8-4.2-7.5-8.3-11.9-13.1-4.3 5.2-8 9.6-11.6 13.9zM750 156.9V94.2c4.1-3.9 7.6-7.3 11-10.5v23.2c3.9-1.7 5.6-5.2 8.2-7 6.6 6.8 13.2 13.5 20.9 21.4v33c-7.2 7.3-14.3 14.5-21.2 21.5-6.1-6.2-12.3-12.4-18.9-18.9zm11.4-47.4v44.2c2.5 2.4 4.6 4.4 6.5 6.3 3.6-3.3 7.4-6.8 10.7-9.9v-23.7c-6.1-5.9-11.6-11.3-17.2-16.9zM639.2 93.8c3.9-3.9 7.5-7.5 11.5-11.6v77.5c1.9 1.4 3.9 2.9 6 4.5-4.4 4.2-8.2 7.8-11.5 10.9-3.5-3.2-7.2-6.6-11.2-10.2 1.8-1.8 3.3-3.5 5.1-5.4.1-21.8.1-43.9.1-65.7z" class="st0"/><path d="M740.8 164.2c-.4-.2-.8-.5-1.2-.7 1.1-1.4 1.6-.6 2.1 0-.2.2-.6.5-.9.7z" class="st3"/><path d="M741.8 165.2c-.6-.1-.9-.5-1-1 .3-.2.7-.5 1-.7l1 1c-.4.3-.7.5-1 .7zM743.4 165.2l1.1 1.1c-.3.3-.5.7-.8 1-.6-.1-.9-.5-1-1 .3-.4.5-.8.7-1.1z" class="st3"/><path d="M742.8 164.5c.3.1.5.4.7.6-.2.4-.5.7-.7 1.1-.6-.1-.9-.4-1-1 .3-.2.6-.4 1-.7zM1219.7 697.5c-8.4 7.8-17.5 16.1-26.4 24.3v-35.1c2.4-2.1 5.6-5 9.4-8.3 5 5.8 10.5 12 17 19.1z" class="st3"/><path d="M613.2 99.6c-2.9 2.7-5.8 5.4-8.9 8.4-6-6-12.1-12.2-19-19.3v65.6c1.9 1.8 4 3.6 6.4 5.9 3.8-4.2 7.7-8.6 11.7-13.1 3.4 3.6 6 6.3 8.3 8.8-6.2 6.2-12.8 12.9-19.2 19.4-5.8-5.9-11.9-12.1-18.9-19.3V99.6c6.7-6.5 13.4-13.1 19.9-19.4 6.3 6.3 12.9 12.8 19.7 19.4z" class="st0"/><path d="M721.5 757.1c-.2.6-.5 1.1-1.2 1.2-.3-.3-.7-.6-1-.9.5-.6.9-1.1 1.4-1.7.3.5.5.9.8 1.4z" class="st1"/><path d="M720.3 758.3c-.5.8-1.3.8-2 .4-.1-.8.6-1 1-1.4.3.4.7.7 1 1zM795.7 714.7c.2-.4.5-.8 1.2-.4-.1.4-.1.8-.2 1.2-.4-.3-.7-.5-1-.8z" class="st1"/><path d="M761.4 109.5c5.6 5.6 11.2 11 17.2 16.9v23.7c-3.3 3.1-7.1 6.5-10.7 9.9-1.9-1.8-4-3.8-6.5-6.3v-44.2z"/><path d="M783.6 555.8c-.8-20.4 3.4-39.9 10.7-58.8 4.1-10.6 9.4-20.7 16-30 21.8-30.8 50.6-51.7 87.2-61.3 1.1-.3 2.5-1.8 3.7.1-20.4 5.3-39.5 13.6-56.2 26.6-38.7 30.1-58.6 69.9-60.5 119.1-.3 4.1.6 7.6-.9 4.3z" class="st3"/><path d="M866 417.9c17.9-10.1 37.2-15.3 57.5-17.4 11.4-1.2 22.9-1.1 34.3.5 37.8 5.3 69.9 21.4 95.7 49.6.8.8 2.8 1.4 1.7 3.3-14.3-15.8-30.7-28.9-50.2-37.9-45-20.7-89.9-20.2-134.8.7-3.8 1.6-6.5 4-4.2 1.2zM910.3 708.2c-19.9-2.9-38.1-10.5-55.2-21-9.6-5.9-18.5-12.9-26.4-20.9-26.2-26.8-41.5-58.7-44.7-96-.1-1.1-1.3-2.8.7-3.6 1.6 20.9 6.5 40.9 16.3 59.6 22.6 43.1 57.8 69.7 105.2 80.4 4 1 7.6.7 4.1 1.5z" class="st3"/><path d="M937.4 659.1c-26.3-1.2-49.3-10.7-68.4-28.3-1.5-1.2-5.7-5.5-6.4-6.3-26.9-32.3-33.3-67.7-19.2-105.2 14.2-37.9 42.4-60.2 83.8-66.4 4.5-.7 9.1-1 13.7-1 35.4 0 69.9 19.8 88 50.5l1.4 2.9-.5.7c-1.9 2.9-3.7 5.8-5.7 9l-1.4 2.2-.6.1c-18.8 4.7-37.5 9.5-51.8 13.2l-.8.2-.6-.6c-8.4-8.5-18-12.8-28.5-12.8-1.9 0-3.9.1-5.9.4-11.1 1.7-19.8 7.2-26.1 16.4-6 8.7-8 19.3-5.7 29.6 2.3 10.5 8.7 19.3 17.9 24.7 5.6 3.3 12.5 5.2 19.4 5.2 16.2 0 29.6-9.5 36.7-26.2l.6-1.5 1.4.8c3.2 1.8 6.4 3.4 10.5 5.5l1.5.8-.9 1.4c-17.3 27.2-34.1 54.7-51.3 84l-.5.8-.6-.1z" class="st2"/><path d="M940.9 453.4c34.9 0 68.8 19.4 86.7 49.8l1 2c-2.2 3.4-4.4 6.9-6.8 10.7-17.1 4.3-34.3 8.7-51.8 13.2-8.4-8.4-18.2-13.2-29.5-13.2-2 0-4 .1-6.1.4-11.4 1.7-20.6 7.4-27.1 17-12.9 18.9-7 44.8 12.7 56.5 5.6 3.4 12.7 5.4 20.2 5.4 14.3 0 29.7-7.4 38.1-27.1 3.3 1.8 6.6 3.5 10.5 5.5-17.7 27.8-34.7 55.7-51.3 84-26.1-1.2-48.5-10.4-67.5-27.9-1.3-1-5.4-5.2-6.3-6.2-25.8-31-33.1-65.9-18.9-103.7 14.2-37.8 42.7-59.5 82.6-65.4 4.5-.7 9-1 13.5-1m0-3v3-3c-4.7 0-9.4.3-13.9 1-20.5 3-38.2 10.2-52.4 21.3-14.4 11.3-25.4 26.8-32.6 46-7.2 19.1-9.1 38-5.7 56 3.3 17.6 11.8 34.7 25.1 50.7.8.9 4.9 5.2 6.6 6.5 19.3 17.8 42.6 27.4 69.3 28.6l1.8.1.9-1.6c17.2-29.3 33.9-56.7 51.2-83.9l1.8-2.8-2.9-1.5c-3.9-2-7.2-3.7-10.4-5.5l-2.9-1.6-1.3 3c-6.9 16.1-19.8 25.3-35.4 25.3-6.7 0-13.3-1.8-18.6-5-8.9-5.3-15-13.7-17.2-23.8-2.2-10-.3-20.1 5.5-28.5 6-8.8 14.4-14.1 25.1-15.7 1.9-.3 3.8-.4 5.6-.4 10.1 0 19.3 4.2 27.4 12.4l1.2 1.2 1.7-.4c14.3-3.7 33.1-8.5 51.8-13.2l1.2-.3.6-1 1-1.6c2-3.2 3.9-6.2 5.8-9.1l.9-1.4-.8-1.5-.6-1.1-.4-.9v-.1l-.1-.1c-18.4-31-53.4-51.1-89.3-51.1z" class="st0"/><path d="M797.1 920.2C736.4 898 679 855.8 635.4 801.3c-50.1-62.5-79.3-138-84.6-218.2-5.8-87.7 16.9-172.2 65.5-244.4 44.9-66.7 109.6-118.5 182.2-145.8l1.7-.6.3 1.8c.7 4-.2 81.7-1 88.4l-.3 2.5-2.1-1.5c-3.4-2.5-3.8-5.9-3.9-9l-2.7-63.4v-.2c-.1-.8-.1-1.6-.1-2.5-2.6 1-5.1 2.2-7.7 3.5l-.8.4c.5 13.7 1.5 42.1 1.5 42.1l-.7.5c-.2.1-.3.2-.5.3-.1.1-.2.1-.3.2l-1.3.9-.8-1.4c-6.3-10.6-12.5-21.2-18.9-32l-4.4 2.5c-5.3 3.1-10.6 6.1-15.8 9 0 .3.2.6.6 1.2.2.3.4.6.6 1 13.8 24 27.9 48.2 41.6 71.7 1 1.7 2.1 3.9 2.2 6.7 1.1 30.8 2.5 63 3.5 88.9v.5c.1.7.2 1.8-.7 3l-.3.4-.5.1c-.4.1-.8.2-1.2.2-1.3 0-2.5-.7-3.4-1.2-.4-.2-.7-.4-1-.5l-24.7-11.5c-25.3-11.8-51.5-23.9-77.3-35.9-2.4-1.1-4.6-2.4-7-4.4-4.3-3.5-8.6-6.9-12.9-10.4-7-5.6-14-11.3-21.1-17.1l-.7 1C627 344 615 360.6 605.7 379.2c52.9 36.2 100.1 68.5 144.3 98.8 1.9-4 3.8-7.9 5.7-11.8 1.6-3.4 3.3-6.8 4.9-10.3-1.4-1.4-3.1-2.5-4.7-3.5-.5-.3-1-.6-1.4-.9-25-17.1-50.4-34.5-74.9-51.3l-44.7-30.6c-.8-.5-1.6-1.2-2.4-1.8-.5-.4-1.1-.8-1.6-1.2l-1-.7.6-1.1c.2-.3.3-.6.5-.8.1-.1.2-.2.2-.3l.6-1.3 1.3.6c29.2 13.4 58 26.6 85.7 39.4 1.7.9 3.2 2.1 4.6 3.1l.2.1c9.9 8 20 16.2 29.7 24.1 4.5 3.6 8.9 7.3 13.4 10.9.5.4 1.1.8 1.6 1.3.3.2.6.5 1 .7.9-1.3 1.7-2.6 2.6-3.8.7-1 1.4-2 2-3-2.3-2.2-4.8-4-7.9-6.3l-2.9-2 3.5-.7c.6-.1 1.2-.2 1.8-.2 2.6 0 4.5 1 6.4 2.1 1 .5 2 1.1 3 1.4 1.5-1.7 2.9-3.5 4.4-5.2 4.9-5.9 10.1-12.1 16-17.5-.4-10-.8-20.1-1.2-30.1-.4-10.7-.9-21.4-1.3-32.2l-.1-1.6 1.6.1c1.5.1 2.8.2 4.4.3.6.1 2.8.2 2.8.2l.4.7c3.8 6.4 7.6 12.8 11.4 19.3 3.9 6.5 7.7 13.2 11.7 19.8 3.6-2.1 7.1-4.1 10.6-6.1 3.1-1.8 6.3-3.6 9.5-5.4-3.1-5.4-6.2-10.7-9.4-16.1-2.8-4.8-5.6-9.6-8.6-14.8l-.3-.6.2-.6c1.8-6.1 4-13.6 6.2-21.1l.3-1.1h1.1c.3 0 .5 0 .8.1h1.6l.3 1.2c2.3 10.4 4.7 20.7 7 31.1 1.5 6.6 3 13.3 4.5 20 1.7-.4 3.3-1.3 5-2.1 1-.5 2-1.1 3.1-1.5-1.8-8-3.6-16.2-5.3-24.1-3.5-16.2-7.1-33-11.4-49.3l-.1-.4.1-.4c1.8-7.2 3.5-14.3 5.3-21.5 1.8-7.1 3.5-14.3 5.3-21.4l.3-1.1h45.8l-.1 1.6c-1.2 14.5-2.5 28.9-3.7 43.3-1.8 21-3.6 42.1-5.4 63.3 3.1-.4 5.9-1.3 8.8-2.2 2.8-33.3 5.9-68.8 9-104.4l.1-1.4h41.7l-.2 1.7c-4.8 33.4-9.5 65.8-14.4 100.1h1.6c10.3.2 21 .5 31.7 2.2 2-11.6 4.1-23.1 6.1-34.7 4-22.3 7.9-44.5 11.8-66.8l.2-1.2h3.1l.3 1.4c3.5 14.8 7 29.7 10.5 44.4l.1.5-.2.5c-3.1 6.4-6.1 12.7-9.2 19-6 12.5-12.1 24.9-18.2 37.6 13.4 2.5 23.9 5.2 33.6 8.7l3-3.6 2.8-3.4 1.1 1.8c1.1 1.9 1.4 3.7 1.7 5.5.2 1 .3 2.1.7 3l2.4 1.1c2.3 1 4.7 2.1 7.3 3.3-1.2-5.4-2.2-10.5-3.4-16-.6-3-1.3-6.1-1.9-9.2l-.1-.7 18-24.7c16.7-22.9 33.5-45.9 50.5-69.1l.5-.6h33.2l-1.4 2.3c-25.7 43.1-51.4 86.1-76.4 127.8 3.6 2.4 7.2 4.9 11.1 7.5 14.6-24.6 29.2-49.1 43.8-73.6 12.4-20.9 24.8-41.7 37.2-62.6l.1-.2.2-.2c1.2-.9 2.4-1 3.2-1h2c12.1.1 24.6.2 37 .2h.9c1.8 0 4.8 0 6.6 3.3l.4.8-.5.8c-34.4 51.4-90.1 143-113.8 182.1-7 11.4-11.5 19-12.5 20.4-.3.5-.5.8-.7 1.1-.5.8-.9 1.6-1.9 1.6-1.1 0-1.5-.9-2-1.8-4.1-7.9-14-17.8-29.5-29.2-28.3-19.5-53.2-27.8-83-27.8-6.5 0-13.4.4-21 1.2-30 3-57.3 14.4-81.3 33.8-3.2 2.7-5.9 5.1-6.3 5.7l-.1.1-6.6 6.6c-5.3 5.8-11.8 13.2-12.2 13.7-22.4 29.6-33 64.1-31.4 102.5.5 11.1 2.4 22.3 5.7 33.5 6.2 21 15.2 38.4 27.5 53 3.7 4.9 4.6 5.7 4.7 5.8l.1.1 9.5 9.5-.4-.3c4.2 3.9 8.5 7.5 10 8.8 17.6 14.3 38 24.4 60.5 30l5.8 1.4.1 1c.3 2.1-.7 3.5-1.5 4.6l-.6.9c-36 61.6-69.7 116.2-103 167.1-1.7 2.6-2.5 5.1-2.6 8-.4 9.9-1 19.9-1.6 29.6l-.2 2.8-1.6-.4zM725.7 866c3.5 2.2 7.1 4.4 10.6 6.6 7.5 4.7 15.2 9.6 23.4 14 22.6-36.8 44.7-74.4 66-110.8 7.4-12.7 14.9-25.4 22.4-38-2.6-1.4-12.3-6.8-14.8-8.2-2.9 10.2-8.4 18.9-13.7 27.2-1.3 2-2.6 4.1-3.8 6.1l-2 3.3-.8-3.8c-.4-2.1-.6-4.2-.8-6.2-.1-1.4-.2-2.8-.4-4.2-.7-5.6.3-10.8 3.2-15.8 1.7-3.1 3.2-6.4 4.8-9.8.7-1.5 1.4-3.1 2.2-4.7-14.3-10-26.4-20.9-36.9-33.2-5.9 6.6-11.5 13-17 19.3L745.6 733c-7.5 8.4-15 16.7-22.5 25.1l-1.4 1.5-1-1.7c-.2-.3-.3-.5-.4-.7-.1-.2-.2-.4-.4-.7l-.5-.9.6-.8c7.3-10.1 14.8-20.5 22-30.5 4.2-5.9 8.5-11.8 12.7-17.7 4.5-6.2 9-12.4 13.5-18.5 2.6-3.6 5.3-7.2 7.9-10.9-1.5-2.2-3.1-4.5-5.2-7.3-37.3 51-71 97.1-104.6 143.3 3.7 3.8 7.2 7.5 10.8 11.2 3.3 3.5 6.7 6.9 10 10.4l1.1-1.1c7.4-8.4 14.9-16.8 22.4-25.2 13.8-15.6 28.1-31.7 42.3-47.5 13.9-15.9 28.2-31.8 42-47.2l1.1-1.3 1.1 1.1c.1.1.2.2.3.2.2.1.5.3.7.6l.7.7-.4 1c-.4.8-.8 1.7-1.1 2.5-.4.8-.8 1.7-1.2 2.5-9.2 19-18.4 38-27.7 57.1-13.5 27.8-27.4 56.6-41.1 84.9-.1.3-.3.7-.5 1-.8.8-1.1 1.3-1.1 1.9zM592 702.3c1.3 2.6 2.4 5.3 3.6 7.8 2 4.5 3.9 8.7 6.2 12.8 1.7-1.1 3.3-2.1 4.9-3.1 3.5-2.3 6.8-4.4 10.3-6.5 5.9-3.7 11.9-7.6 17.6-11.4 13.7-9 27.8-18.3 43.3-25.1 11.8-5.2 23.7-10.9 35.1-16.4 4.7-2.3 9.3-4.5 14-6.7 9-4.3 17.9-8.6 27.2-13-.3-.6-.6-1.2-.8-1.8-.5-1.1-1-2.3-1.5-3.4-3.2 1.3-6.3 2.9-9.3 4.4-4.6 2.3-9.3 4.6-14.3 6.1l-1.4.4-.5-1.4c0-.1-.1-.2-.2-.4s-.2-.4-.2-.6l-.4-1.1 1-.6c3-2 6.1-3.9 9.1-5.9 4.4-2.8 8.8-5.7 13.2-8.5-2.7-6.9-5.4-14.3-7.5-22.5-19.6 12.7-39.1 25.4-58.6 38.1-30.4 19.6-60.6 39.2-90.8 58.8zm-29.7-133.5c.6 8.5 1.2 16 1.7 23.8 25.7-1.4 51.3-2.9 76.9-4.3 32.1-1.8 64-3.5 96.1-5.4-.8-7-1.6-15.1-1.9-23.6-40.8 2.2-81.3 4.4-121.7 6.6l-51.1 2.9zm3.1-62.4c68.4 16.4 120.9 28.9 169.9 40.5.2-3.3.3-5.9.5-8.7l-12.5-3c-52.3-12.6-104.4-25.1-156.6-37.6-.1.4-.1.7-.2 1.1-.2 1.2-.5 2.2-.6 3.2-.1.6-.2 1.2-.3 1.7-.2 1-.4 1.9-.2 2.8zm2.7-18.3c48.5 3.5 96.7 7 144.9 10.5l29.5 2.1c.3-1.1.6-2.1.8-3.1.5-1.9 1-3.8 1.6-5.8-27.8-2-55.5-4-83.1-6-30.7-2.2-61.3-4.4-92-6.6-.6 3.2-1.1 5.9-1.7 8.9z" class="st1"/><path d="M799 194.3c.6 3.6-.2 81.2-1 88-2.8-2-3.2-4.8-3.3-7.8-.9-21.1-1.8-42.3-2.7-63.4-.1-1.5-.2-2.9-.2-4.7-4 1.2-7.6 3.1-11.5 5 .5 14 1 28.1 1.5 42.2-.3.2-.5.3-.8.5-6.5-11-13-22-19.7-33.3-7.5 4.3-14.8 8.5-22 12.6-.6 1.8.7 2.7 1.3 3.8 13.8 23.9 27.7 47.8 41.6 71.7 1.1 1.9 1.9 3.8 2 6 1.1 29.6 2.3 59.3 3.5 88.9 0 .8.3 1.6-.4 2.5-.2.1-.5.1-.7.1-1.4 0-2.6-1.1-3.8-1.6-34-15.8-67.9-31.6-101.9-47.3-2.5-1.1-4.6-2.5-6.7-4.2-11.6-9.4-23.3-18.8-35.2-28.5-12.7 17.6-25.4 34.9-35.2 54.9 48.7 33.3 97.5 66.7 146.8 100.5 4.1-8.5 7.9-16.5 11.8-24.6-2-2.3-4.7-3.8-7.1-5.4-39.8-27.3-79.7-54.5-119.6-81.8-1.4-.9-2.6-2-4-3 .2-.4.5-.7.7-1.1 28.6 13.1 57.1 26.2 85.7 39.4 1.6.8 3.1 2 4.5 3.1 14.4 11.6 28.7 23.3 43.1 35 1.2.9 2.3 1.8 3.9 3 2.1-3.2 4.2-6.1 6.2-9.1-2.7-2.8-5.6-4.9-9-7.3.5-.1 1-.1 1.5-.1 3.8 0 6.3 2.8 10 3.6 6.8-7.9 13.3-16.5 21.4-23.8-.8-21-1.7-41.9-2.5-63 2.1.1 3.9.3 6.3.5 7.8 13.2 15.7 26.7 23.8 40.4 7.6-4.4 14.9-8.5 22.7-13-6.1-10.5-12.1-20.7-18.8-32.2 1.8-6.1 4-13.6 6.2-21.1.4 0 .8.1 1.2.1 3.9 17.4 7.9 34.8 11.9 52.5 4-.5 7-3 11-4.5-5.7-25-10.5-50.1-17-74.7 3.5-14.3 7.1-28.6 10.6-42.9h43c-3.1 36.2-6.2 72-9.3 108.4 4.3-.3 8-1.5 11.9-2.7 3-35.1 6-70.1 9.1-105.4h38.6c-4.9 33.9-9.7 67.5-14.6 101.8 12.1.3 24 .4 36.2 2.5 6.1-34.5 12.2-68.7 18.2-102.9h.7c3.5 14.9 7 29.8 10.5 44.6-9.4 19.4-18.7 38.7-28.3 58.4 12.6 2.3 24.6 5.1 36.3 9.4 1.7-2 3.3-4 5.1-6.2 1.7 2.8 1.3 5.8 2.5 8.9 3.8 1.7 8 3.6 13 5.8-2.1-9.6-3.9-18.5-5.9-28 22.5-30.8 45.2-61.9 68.1-93.2h29.8c-25.8 43.3-51.3 85.9-77.1 129 4.4 3 8.7 5.9 13.6 9.2 27.3-46 54.6-91.8 81.8-137.6.7-.6 1.5-.7 2.3-.7.6 0 1.3.1 2 .1 12.3.1 24.7.2 37 .2h.9c2 0 4 .2 5.3 2.5-44.2 66.1-122.2 196.3-126.3 202.5-.9 1.3-1.2 2-1.4 2-.9 0-1.6-9.3-30.6-30.7-30.1-20.7-55.2-28.1-83.9-28.1-6.8 0-13.8.4-21.1 1.2-30.8 3.1-58.1 14.7-82.1 34.1-1.3 1.1-5.9 5-6.6 5.9-3.6 2.8-18.1 19.5-18.8 20.4-23.2 30.6-33.3 65.3-31.7 103.5.5 11.5 2.5 22.8 5.8 33.9 5.8 19.6 14.5 37.7 27.8 53.5l-.1-.1c1.2 1.6 4.2 5.5 5.1 6.2 4.2 5.3 18 17 19.1 18 18.1 14.7 38.5 24.7 61.1 30.3l4.8 1.2c.3 2-1.1 3.1-1.9 4.5-33 56.5-67.1 112.3-103 167-1.8 2.8-2.7 5.5-2.8 8.8-.4 10.1-1 20.2-1.6 30.4C683.8 877.2 563.7 756.5 552.3 583 540.1 398.3 656.2 248 799 194.3m-55.4 308.1c1.1-4.1 2.1-7.7 3.2-11.9-59.6-4.3-118.8-8.5-178.3-12.8-.7 4.2-1.4 7.7-2.2 11.8 59.4 4.3 118.3 8.6 177.3 12.9m-6.9 46.4c.2-4.3.4-7.8.7-11.7-57.5-13.8-114.6-27.5-171.9-41.3-.4 2.3-.9 4.1-1.1 5.9-.2 1.9-1.2 3.9-.1 6 57.3 13.7 114.7 27.4 172.4 41.1m-174.1 45.4c59-3.3 117.4-6.5 176.1-9.8-1.1-9.3-1.9-17.8-2.1-26.6-59 3.2-117.3 6.4-175.9 9.6.7 9.2 1.3 17.6 1.9 26.8m38.7 130.9c5.8-3.7 11-7.2 16.4-10.5 20.1-12.4 38.9-26.8 60.7-36.4 16.6-7.3 32.8-15.4 49.2-23.2 9.4-4.5 18.8-9 28.5-13.6-1.3-2.8-2.4-5.3-3.6-7.8-8.7 3.4-16.3 8.4-24.8 11-.1-.3-.3-.7-.4-1 7.7-5 15.5-10 23.3-15.1-3.3-8.5-6.2-16.4-8.4-25.5-51.1 33.2-101.5 65.9-152.1 98.8 4 8.1 6.8 16 11.2 23.3M686.8 837c.7-.8 1.4-1.5 2.1-2.2 21.6-24.3 43.1-48.6 64.7-72.8 13.9-15.9 28-31.6 42.1-47.3.3.3.7.5 1 .8-.8 1.7-1.5 3.3-2.3 5-22.9 47.3-45.9 94.6-68.8 142-.6 1.3-1.7 2.5-1.4 4.4 11.7 7.1 23.2 14.9 35.9 21.7 30.9-50.3 60.1-100.9 89.9-151.4-6.1-3.4-11.7-6.5-17.8-9.9-3.3 13.3-11.1 23.7-17.9 34.8-.7-3.5-.7-6.9-1.2-10.3-.7-5.3.3-10.1 3-14.8 2.8-5 5-10.4 7.6-15.7-14.6-10.1-27.5-21.5-38.8-35-6.3 7.1-12.3 13.9-18.2 20.6-15 16.8-30 33.5-45 50.3-.3-.5-.5-.9-.8-1.4 11.6-16 23.1-32.1 34.7-48.2 7.3-10.1 14.6-20.1 22-30.3-2.3-3.3-4.5-6.4-7-9.9-35.9 49.1-71.5 97.8-106.6 146 7.8 8 15.2 15.8 22.8 23.6m147.1-395.8-.1.1.1-.1m-12.1 217.3c.1.1.1.1 0 0m-20.4-468.3-3.4 1.3c-72.9 27.4-137.8 79.4-182.9 146.4-48.8 72.5-71.5 157.4-65.7 245.3 5.3 80.5 34.6 156.3 84.9 219C678 857 735.7 899.4 796.6 921.6l3.8 1.4.2-4 .1-.9c.6-9.7 1.2-19.7 1.6-29.6.1-2.7.8-4.9 2.3-7.3 33.4-50.9 67.1-105.6 103.1-167.1.1-.2.3-.5.5-.8.9-1.2 2.1-3 1.7-5.7l-.3-2-1.9-.5-1.6-.4-3.2-.8c-22.3-5.5-42.5-15.5-59.9-29.7-1.3-1.1-4.9-4.1-8.5-7.5l-10.3-10.3-.1-.1-.3-.2c-.2-.2-1.1-1.2-4.5-5.6l-.2.2.2-.2C807 636.1 798.1 619 792 598.1c-3.3-11.1-5.2-22.2-5.7-33.2-1.6-38.1 8.9-72.2 31.1-101.6.6-.7 6.6-7.7 11.7-13.2l6.8-6.8.1-.1.2-.3c.5-.6 3.1-2.9 6.1-5.4 23.8-19.2 50.8-30.4 80.5-33.4 7.6-.8 14.4-1.1 20.8-1.1 29.5 0 54 8.2 82.1 27.5 15.3 11.3 25 21 29 28.7.5 1 1.3 2.6 3.3 2.6 1.9 0 2.7-1.4 3.2-2.3.2-.3.4-.6.7-1.1.9-1.4 5.3-8.6 12.5-20.5 23.8-39.1 79.4-130.6 113.8-182l1-1.5-.9-1.6c-2.2-4-6.1-4-7.9-4h-.9c-12.4 0-24.9-.1-37-.2h-2c-1.1 0-2.6.1-4.1 1.3l-.5.4-.3.5c-12.4 20.9-24.9 41.8-37.3 62.8-14 23.6-28.6 48-42.9 72.1-2.9-2-5.8-3.9-8.6-5.8 24.7-41.3 50.2-83.9 75.6-126.6l2.7-4.5h-36.6l-.9 1.2c-16.9 23.1-33.9 46.4-50.4 69l-17.7 24.2-.8 1.1.3 1.3c.7 3.1 1.3 6.2 1.9 9.2.9 4.3 1.8 8.6 2.7 13.1-1.6-.7-3.1-1.4-4.6-2.1l-1.8-.8c-.2-.7-.3-1.4-.4-2.2-.3-1.9-.7-4-1.9-6.1l-2.2-3.6-2.7 3.3c-.5.6-1 1.2-1.4 1.8-.8 1-1.5 1.9-2.3 2.8-9-3.2-18.8-5.7-30.9-8.1 5.9-12.1 11.7-24.2 17.4-35.9 3.1-6.3 6.1-12.7 9.2-19l.5-1-.2-1c-3.5-14.8-7.1-30-10.5-44.6l-.5-2.3h-5.6l-.4 2.5c-3.9 22.3-7.9 45.1-11.8 67.1-1.9 11-3.9 21.9-5.8 32.9-10.3-1.5-20.4-1.8-30.3-2 4.8-33.7 9.4-65.6 14.1-98.5l.5-3.4H907.2l-.2 2.7c-3.1 35.2-6.1 70.3-8.9 103.4-1.9.6-3.8 1.1-5.8 1.5 1.8-20.6 3.5-41 5.3-61.4 1.2-14.4 2.5-28.8 3.7-43.3l.3-3.3H852.9l-.6 2.3c-1.7 7.1-3.6 14.4-5.3 21.4s-3.6 14.3-5.3 21.5l-.2.7.2.7c4.3 16.2 7.9 33 11.4 49.2 1.6 7.5 3.3 15.3 5 22.9-.7.3-1.4.7-2.1 1.1-1.1.6-2.2 1.1-3.2 1.5-1.4-6.2-2.8-12.3-4.2-18.4-2.3-10.2-4.7-20.7-7-31.1l-.5-2.3h-2.6c-.2 0-.6-.1-1-.1h-2.2l-.6 2.2-.1.2c-2.2 7.4-4.4 14.8-6.1 20.9l-.4 1.2.7 1.1c3 5.1 5.8 10 8.6 14.7 2.9 5 5.8 10 8.7 14.9-2.8 1.6-5.5 3.1-8.2 4.7-3.1 1.7-6.2 3.5-9.4 5.4-3.7-6.2-7.3-12.4-11-18.6-3.8-6.5-7.6-12.9-11.3-19.2l-.8-1.3-1.5-.1c-.7-.1-1.4-.1-2-.2-1.5-.1-2.9-.3-4.4-.3l-3.3-.2.1 3.3c.4 10.8.8 21.6 1.3 32.1.4 9.7.8 19.6 1.2 29.5-5.8 5.4-10.8 11.4-15.6 17.2-1.2 1.5-2.5 2.9-3.7 4.4-.6-.3-1.2-.6-1.9-.9-2-1-4.2-2.2-7.1-2.2-.7 0-1.4.1-2.1.2l-6.9 1.3 5.8 4.1c2.7 1.9 4.8 3.5 6.8 5.3-.4.6-.9 1.3-1.3 1.9-.6.8-1.1 1.6-1.7 2.5-.5-.4-.9-.7-1.3-1-4.4-3.6-8.9-7.2-13.3-10.8-9.7-7.9-19.8-16.1-29.8-24.2l-.2-.2c-1.4-1.1-3-2.4-4.8-3.3-27.7-12.8-56.5-26-85.7-39.4l-2.6-1.2-1.3 2.6-.1.1c-.2.2-.4.5-.6 1l-1.1 2.3 2.1 1.5c.5.4 1 .8 1.6 1.2.8.6 1.6 1.3 2.5 1.9 14.9 10.2 29.7 20.3 44.6 30.5 24.6 16.8 50 34.2 75 51.3.5.3 1 .6 1.5 1 1.3.9 2.6 1.7 3.7 2.6-1.5 3.1-3 6.2-4.4 9.3-1.6 3.4-3.2 6.8-4.9 10.2-43.4-29.8-89.9-61.6-141.8-97.1 9-17.8 20.2-33.3 31.9-49.6 6.7 5.4 13.4 10.8 19.9 16.1 4.3 3.5 8.6 6.9 12.9 10.4 2.6 2.1 4.8 3.5 7.4 4.6 25.8 11.9 52 24.1 77.3 35.9 8.2 3.8 16.3 7.6 24.5 11.4.2.1.5.3.8.5 1 .6 2.4 1.4 4.1 1.4.5 0 1.1-.1 1.6-.2l.9-.3.6-.8c1.3-1.6 1.1-3.3 1.1-4v-.5c-1-25.9-2.4-58.1-3.5-88.9-.1-3.1-1.4-5.6-2.4-7.4v-.1c-13.6-23.5-27.8-47.7-41.5-71.6-.2-.3-.3-.6-.5-.8 4.7-2.7 9.5-5.4 14.3-8.2l3.2-1.8C767 235.6 773 245.8 779 256l1.6 2.7 2.6-1.8c.1-.1.2-.1.3-.2.2-.1.3-.2.5-.3l1.4-.9-.1-1.7c-.5-13.4-1-26.9-1.4-40.3 1.9-.9 3.7-1.8 5.6-2.6v.7l1.3 31.7 1.3 31.7c.1 2.4.2 7 4.6 10.1l4.1 3 .6-5c.8-6.7 1.7-84.8 1-88.8l-1-4.1zM569.9 486.8c.4-1.9.7-3.8 1.1-5.9 30.3 2.2 60.5 4.3 90.7 6.5 27.1 1.9 54.2 3.9 81.3 5.8-.4 1.4-.7 2.7-1.1 4.1-.2.6-.3 1.3-.5 1.9l-27-2c-47.3-3.4-96.1-6.9-144.5-10.4zm-3.1 18.4c0-.3.1-.8.2-1.3.1-.6.3-1.2.3-1.9.1-.8.3-1.6.4-2.6 52.2 12.6 105.2 25.3 156.5 37.6l9.8 2.4c-.1 1.8-.2 3.6-.3 5.6-48.2-11.5-100-23.8-166.9-39.8zm-2.9 65 49.9-2.7c39.9-2.2 79.7-4.4 119.9-6.5.3 7.4 1 14.4 1.7 20.6-31.6 1.8-63.5 3.5-94.5 5.3-25.1 1.4-50.2 2.8-75.5 4.2-.5-6.9-.9-13.5-1.5-20.9zm30 132.7c30-19.5 59.9-38.9 89.9-58.4 18.8-12.2 37.6-24.4 56.5-36.7 1.9 7.1 4.3 13.5 6.6 19.5-4.1 2.7-8.2 5.3-12.1 7.9-3 2-6.1 3.9-9.1 5.9l-1.9 1.3.7 2.2c.1.2.2.5.3.7 0 .1.1.2.1.3l.9 2.8 2.8-.9c5.1-1.6 9.9-3.9 14.5-6.2 2.6-1.3 5.2-2.6 7.9-3.8.3.7.6 1.3.9 2 .1.2.1.3.2.5-8.8 4.2-17.4 8.3-25.8 12.3-4.7 2.2-9.4 4.5-14 6.7-11.4 5.5-23.3 11.2-35.1 16.4-15.6 6.9-29.8 16.2-43.5 25.3-5.7 3.8-11.7 7.7-17.6 11.3-3.5 2.1-6.8 4.3-10.3 6.6-1.1.7-2.3 1.5-3.5 2.3-2-3.6-3.6-7.4-5.4-11.3-.9-2.2-1.9-4.5-3-6.7zm74 110.2c33-45.2 66.1-90.6 102.7-140.6 1.2 1.7 2.3 3.3 3.3 4.7-2.4 3.3-4.8 6.7-7.2 10-4.4 6.1-9 12.4-13.5 18.6-4.3 5.9-8.5 11.9-12.8 17.8-7.2 10-14.6 20.3-21.9 30.4l-1.2 1.6 1 1.7.3.6c.1.3.3.5.5.8l2.1 3.5 2.7-3c7.5-8.4 15-16.8 22.5-25.1l22.5-25.2c6.2-7 11.2-12.7 15.9-18 10.1 11.6 21.6 21.9 35 31.4-.6 1.2-1.1 2.4-1.6 3.5-1.6 3.4-3 6.6-4.8 9.7-3 5.3-4.1 10.7-3.4 16.7.2 1.4.3 2.7.4 4.2.2 2 .4 4.1.8 6.3l1.5 7.5 4-6.5c1.2-2 2.6-4.1 3.8-6.1 5.1-8 10.3-16.2 13.4-25.8 1.9 1 3.7 2.1 5.6 3.1 2.1 1.1 4.1 2.3 6.2 3.5-7.2 12.3-14.5 24.7-21.6 36.7-21.1 36-42.9 73.1-65.2 109.5-7.6-4.2-14.9-8.8-22-13.3-3.1-2-6.3-4-9.6-6 .1-.1.2-.3.3-.5.2-.3.4-.7.6-1.1 13.7-28.3 27.6-57.1 41.1-84.9 9.2-19 18.5-38.1 27.7-57.1.4-.9.8-1.7 1.2-2.6.4-.8.7-1.6 1.1-2.5l.9-1.9-1.5-1.5c-.3-.3-.6-.6-.9-.7-.1 0-.1-.1-.2-.1l-2.2-2.2-2.1 2.4c-13.9 15.4-28.2 31.4-42.1 47.3-14.1 15.8-28.4 31.9-42.3 47.5-7.4 8.4-14.9 16.7-22.3 25.1-3-3.1-6-6.2-8.9-9.3-3.1-3.1-6.4-6.6-9.8-10.1z" class="st0"/></svg>