<?xml version="1.0" encoding="utf-8"?>
<!-- Generator: Adobe Illustrator 25.2.0, SVG Export Plug-In . SVG Version: 6.00 Build 0)  -->
<svg version="1.1" id="Calque_1" xmlns="http://www.w3.org/2000/svg" xmlns:xlink="http://www.w3.org/1999/xlink" x="0px" y="0px"
	 viewBox="0 0 1920 1080" style="enable-background:new 0 0 1920 1080;" xml:space="preserve">
<style type="text/css">
	.st0{fill:#FFFFFF;}
	.st1{fill:#010101;}
	.st2{fill:#FFCC03;}
	.st3{fill:#FDFDFD;}
	.st4{fill:#010101;stroke:#FFFFFF;stroke-width:3;stroke-miterlimit:10;}
</style>
<rect x="1183.6" y="857.6" class="st0" width="128.2" height="81.3"/>
<path class="st0" d="M1337.8,553.8c3.9,220.6-176.3,392.6-400.1,392.5C711.9,946.1,537.9,777,537.6,555.6
	c-0.3-220.2,173.2-386.5,400.1-388.3C1161,165.5,1334,338.4,1337.8,553.8z"/>
<g>
	<path d="M802.1,955.5l-0.4-0.5c-0.8-0.9-1.7-1.9-2.7-3.1l-1.4-1.6l0-0.6c1.2-20.1,2.4-41.5,3.5-63.1c0.1-2.2,1.1-3.8,2.1-5.3
		c44.3-67.1,85.8-137.7,125.9-205.9c5.5-9.3,10.9-18.6,16.4-27.8c14.1-23.8,29-48.2,44.4-72.4c0.5-0.7,0.9-1.5,1.5-2.4
		c-18.4-9.8-36.9-19.7-55-29.3l-0.8-0.4v-0.9c0-0.3,0-0.4-0.1-0.6l-0.4-1.4l1.4-0.4c27.9-7.1,56.7-14.4,85.7-21.8
		c27.6-41.8,54.1-85.3,79.8-127.4c28.4-46.7,57.9-94.9,89-141.3l-337.5-2.1c-6.8,33-16.2,65.8-24.5,94.7l-0.3,1l-1,0.1
		c-4.6,0.3-8.7,0.5-12.8,0.5c-4.9,0-9.6-0.2-14.3-0.7l-1.4-0.1l2.4-187h533l0.4,0.5c0.9,1,1.9,2.2,3,3.5l1.1,1.4V222
		c0,1.9-0.5,3.5-1.6,5.1c-33.7,47.6-64.4,98.1-94.1,147c-11.7,19.2-23.7,39.1-35.8,58.5c-22.4,35.9-40.2,63.2-57.6,88.3
		c-0.2,0.3-0.4,0.6-0.7,1c9.3,2.9,18.5,5.9,27.7,8.8c10.3,3.3,20.5,6.5,30.8,9.8l1,0.3v1.1c0,0.1,0,0.1,0,0.2c0,0.2,0.1,0.4,0.1,0.6
		v1.1l-1,0.4c-30.9,11.2-61.9,22.5-93.4,33.9c-38.6,65.8-77.3,131.6-116,197.6l-49.5,84.2h325.4c1.8-5.4,3.7-10.8,5.6-16.2
		c10.2-29.7,20.8-60.4,27.4-91.6l0.3-1.2h29.1l-0.1,1.6c-1.2,19-2.5,38.4-3.8,57.1c-3.2,46.3-6.5,94.1-7.3,142l0,0.2l-0.1,0.2
		c-0.3,0.8-1,1.4-2,2.2c-0.4,0.3-0.8,0.7-1.2,1l-0.4,0.4H802.1z"/>
	<path class="st0" d="M1334.1,157.2c1.1,1.2,2.3,2.7,3.7,4.4c0,20.1,0,40.3,0,60.4c0,1.6-0.4,2.9-1.3,4.2
		c-46.9,66.3-87.1,136.8-129.9,205.6c-18.6,29.8-37.6,59.4-57.6,88.2c-0.5,0.7-0.9,1.4-1.7,2.7c20.3,6.4,40.3,12.8,60.3,19.1
		c0,0.3,0.1,0.6,0.1,0.8c-31.1,11.3-62.2,22.6-93.9,34.1c-55.5,94.6-111.2,189.4-167.1,284.6c110,0,219.4,0,329.1,0
		c12.3-36.2,25.5-71.8,33.4-109c8.9,0,17.3,0,26.3,0c-4,66.1-10,131.9-11.1,199.1c-0.2,0.6-1.6,1.5-2.8,2.6
		c-172.9,0-345.7,0-518.8,0c-1.1-1.2-2.3-2.6-3.7-4.2c1.2-20.9,2.4-42,3.5-63.1c0.1-1.8,0.9-3.2,1.8-4.5
		c50.3-76.2,96-155.2,142.3-233.8c14.4-24.4,29.2-48.5,44.4-72.4c0.7-1.1,1.4-2.2,2.3-3.8c-18.9-10.1-37.7-20.1-56.4-30
		c0-0.3,0-0.6-0.1-1c28.7-7.3,57.4-14.6,86.3-21.9c58.8-88.9,110.6-182.4,170.7-271.5c-114.1-0.7-227.7-1.4-341.5-2.1
		c-6.6,32.5-15.6,64.1-24.7,95.8c-4.2,0.3-8.4,0.5-12.7,0.5c-4.6,0-9.3-0.2-14.2-0.7c0.8-61.4,1.6-122.6,2.4-184.1
		C980.2,157.2,1156.9,157.2,1334.1,157.2 M1335.4,154.2h-1.3H803.2h-3l0,3l-1.4,110.5l-1,73.6l0,2.8l2.8,0.3
		c4.8,0.5,9.5,0.7,14.5,0.7c4.1,0,8.3-0.2,12.9-0.5l2.1-0.1l0.6-2c8.2-28.6,17.5-61,24.3-93.6l95,0.6l238.5,1.5
		c-30.6,45.7-59.5,93.1-87.5,139.1c-25.5,41.9-52,85.3-79.4,126.9c-28.6,7.2-57.4,14.5-85.2,21.6l-2.9,0.7l0.7,2.9c0,0,0,0.1,0,0.3
		v1.8l1.6,0.8c17.7,9.4,35.7,19,53.6,28.5c-0.2,0.3-0.4,0.7-0.6,1c-15.4,24.2-30.4,48.6-44.5,72.5c-5.5,9.3-10.9,18.5-16.4,27.8
		c-40.1,68.2-81.5,138.7-125.8,205.8c-1.1,1.5-2.2,3.5-2.3,6c-1.1,21.5-2.3,42.9-3.5,63.1l-0.1,1.2l0.8,0.9l1,1.2
		c1,1.1,1.9,2.1,2.7,3.1l0.9,1h1.3h518.8h1.2l0.9-0.8c0.4-0.3,0.8-0.6,1.1-1c1.1-0.9,2.1-1.7,2.5-2.9l0.1-0.4l0-0.5
		c0.8-47.8,4.1-95.6,7.3-141.9c1.3-18.7,2.6-38,3.8-57.1l0.2-3.2h-3.2h-26.3h-2.4l-0.5,2.4c-6.6,31.1-17.2,61.8-27.4,91.4
		c-1.7,5-3.5,10.1-5.2,15.2H951.9c15.8-26.8,31.5-53.6,47.2-80.4c38.3-65.2,77.9-132.6,116.7-198.8c31.3-11.4,62.1-22.6,92.9-33.7
		l2-0.7v-2.1c0-0.4-0.1-0.7-0.1-0.9l0,0v-2.1l-2.1-0.7c-10.2-3.2-20.7-6.5-30.8-9.7c-8.6-2.7-17.1-5.4-25.8-8.2
		c17.3-25,35-52,57.2-87.6c12.1-19.4,24.1-39.3,35.8-58.5c29.7-48.9,60.4-99.4,94-147c1.3-1.8,1.9-3.7,1.9-5.9v-60.4v-1.1l-0.7-0.8
		l-0.8-1c-1.1-1.4-2.1-2.5-3-3.5L1335.4,154.2L1335.4,154.2z"/>
</g>
<path class="st1" d="M1225.7,719.2c12.3-11.5,24.4-22.7,36.8-34.3c-17.2-16.7-33.3-32.3-49.3-47.9c-2.5,0.7-3,3.3-6,4.5
	c0-15.7,0-31,0-46.3c-0.4-0.1-0.9-0.2-1.3-0.3c-15.9,16.5-31.8,33-48,49.7c0.6,35.6,1.2,71.4,1.8,107.6c-4.7,4.4-9.6,8.9-14.8,13.8
	c-4.3-4.1-9.1-8.6-14.7-13.9c0-22.8,0-46.3,0-69.3c-3.4-3.2-6.2-5.8-9.2-8.7c7.3-7.7,14.5-15.3,22.1-23.2
	c-12.5-12.1-24.8-24-37.3-36c-7.9,7.3-14.7,15.6-22.6,22.7c-0.2-0.2-0.5-0.5-0.7-0.8c11.2-18.9,22.5-37.8,33.8-56.9
	c34.3-12.5,68.7-24.9,103-37.3c0-0.3,0-0.6,0-0.9c-21.9-6.9-43.9-13.9-66.3-21c40.3-58.1,76-118.6,113.1-179.2
	c37.4,57.1,58.9,119.1,63.8,186.7c6.1,84.5-13.6,162.8-57.9,235.5C1256.5,748.8,1241.6,734.4,1225.7,719.2z"/>
<path class="st1" d="M1049.9,447.9c2.8,3.3,5.5,6.6,8.6,10.2c-8.4,13.2-16.4,26.7-25.4,39.6c-0.9-1.2-1.8-2.4-2.6-3.6
	c-25.1-36.6-68.9-55.1-112.1-45.6c-44.9,9.9-74.4,37.9-84.7,82.7c-10.3,45,4.3,82.8,40.5,111.7c17,13.6,37,20,58.5,22.1
	c-8.1,13.9-16.2,27.8-24.3,41.9c-20-4-38.2-11.5-54.9-22.7c-5.4-3.6-10.4-7.6-15.6-11.5l0.2,0.2c-0.5-0.7-0.9-1.9-2.2-1l0.1,0.1
	c-2.6-5.1-7.9-7.8-11.3-12.3c-0.6-0.8-1.1-2.4-2.8-1.8l0.1,0.1c0.9-1.3-0.2-1.7-1-2.2l0.1,0.1c-1.2-1.6-1.7-3.9-4.2-4.1l0.1,0.1
	c0.9-2-1.1-2.8-1.9-3.9c-28.9-40.3-37.6-84.5-25.4-132.7C795,494.6,805,476,818.1,459l-0.1,0.1c1.7-2,3.4-4.1,5.1-6.1l-0.1,0.1
	c0.7-0.6,1.9-0.9,1-2.2l-0.1,0.1c1.3,0.6,1.4-0.1,1.2-1.1l-0.2,0.1c3.9-2.2,6.9-5.2,9.1-9.1l-0.1,0.1c1.3,0.9,1.6-0.4,2.2-1
	l-0.1,0.1c0.6-0.2,1-0.5,1.1-1.1l-0.1,0.1c1.1-0.8,2.2-1.5,3.2-2.3c27.4-22.5,58.9-34.5,94.2-35.5c33.3-1,64,8.2,91.7,26.9
	c1.2,0.8,2.1,2.6,4.1,1.9l-0.2-0.1c0.5,2.2,1.9,3.2,4.1,3.1l-0.1-0.1c0.1,2.6,2.7,2.8,4.1,4.2l-0.1-0.1c2.6,2.5,5.1,5.1,8.1,7.1
	l-0.1-0.1c0.1,0.7,0.4,1.1,1.2,1.1l-0.2-0.1c0.4,1,1.1,1.8,2.1,2.1l-0.1-0.1c0.1,0.7,0.4,1.1,1.2,1.1L1049.9,447.9z"/>
<path class="st1" d="M1258.2,783.2c-11.1,16.5-24.1,31.4-37.8,45.7c-9.7,10.1-20,19.6-31.1,28.7c-78.6,0-157.3,0-236.6,0
	c39.7-67.6,79.3-135,119.2-202.8c6.4,7.2,12.7,14.2,19.2,21.5c-7.8,8.3-17,17.9-26.3,27.8c5.3,5,10.4,9.7,15.7,14.7
	c0,11.4,0,22.9,0,35.9c-4.3,4-9.6,8.8-15.1,13.8c13.9,13.6,27.4,26.8,41.1,40.2c13-13.5,25.8-26.7,39-40.3
	c13.2,12.9,26.3,25.7,38.9,37.9c8.4-7.6,16.7-15.2,25.6-23.2c7.5,7.3,15.5,15.2,23,22.5c8.3-8,16.5-15.7,24.6-23.5
	C1257.7,782.5,1258,782.9,1258.2,783.2z"/>
<path class="st1" d="M772,189.1c2.9,0.5,4.9-1.5,7.3-2.5c6.6-2.7,13.1-5.6,20.2-8c0,4.1,0,7.8,0,11.9
	c-88.8,35.7-157.2,94.9-203.3,179.1c-35.5,64.8-50.9,134.5-47.2,208.2c8.1,158.3,110.5,291.9,248,344.9c0.2,2.8,0.1,5.8-0.4,8.9
	c-5.8-1.7-11.1-4.1-16.4-6.5c-125.1-57.4-204.6-152.9-233.6-287.4c-39.1-181.7,52.5-364.6,220-445.3c1.2-0.6,2.9-0.6,3.4-2.4
	l-0.1,0.1c1.2,0.5,2,0.5,2.1-1.1V189.1z"/>
<path class="st0" d="M770.1,190c-2.1-0.2-3.3-1.8-4.6-3.1c-7-6.9-14-13.7-20.9-20.6c-0.4-0.4-0.7-0.7-1.1-1.1
	c-0.2-0.3-0.4-0.5-0.7-0.6c-0.3-0.3-0.7-0.7-1-1c-0.5-0.6-1-1.4-2.1,0c0.4,0.2,0.8,0.4,1.2,0.7c0.1,0.6,0.4,0.9,1,1
	c0.1,0.6,0.4,0.9,1,1c0.1,0.6,0.4,0.9,1,1c0.2,0.8,0.3,1.5-0.4,2.2c-6.6,7-13.2,14-20.4,21.6c-4.6-5.2-8.2-9.3-12.5-14.2
	c-4.2,5-7.9,9.4-11.8,14.1c-10.2-9.9-19.2-18.8-28-27.4c-7.4,9.4-16.9,17.1-24.7,25.6c-8.5-8.2-16.8-16.2-25.3-24.3
	c3.2-2.9,6.4-5.8,9.2-8.3c0-23.2,0-45.3,0-66.4c10.6-10.6,20.6-20.5,30.8-30.7c0,16.1,0,32.3,0,49c8-8.2,15.5-15.8,23.3-23.7
	c5.7,5.7,10.6,10.6,15.7,15.7c5-5.2,9.8-10.1,14.6-15c8.4,8.5,16.5,16.8,24.7,25c0.3-0.2,0.7-0.4,1.1-0.6c0-6.9,0-13.7,0-19.8
	c10.6-10.7,20.5-20.7,31-31.2c0,9.4,0,18.5,0,28.1c9.7,9.4,19.5,18.9,29.1,28.1c0,14.9,0,29.2,0,43.8c-8.7,8.7-17.6,17.5-26.3,26.4
	c-0.9,0.9-3.4,1.5-1.6,3.7l0.1-0.1c-1.6-1.4-2-0.5-2.1,1.1L770.1,190z M699,177c3.6-4.3,7.3-8.7,11.5-13.6
	c4.4,4.8,8.1,8.9,11.9,13.1c2.8-3.1,5.3-5.7,8-8.7c-3.1-3.4-6.7-7.3-10-10.9c0-13.9,0-27.4,0-40.8c1.8-1.9,3.5-3.7,5.3-5.6
	c-3.8-3.7-7.4-7.3-11.2-11c-3.5,3.6-7.1,7.2-10.9,11c1.8,2,3.5,3.9,5,5.7c0,11.2,0,22,0,31c-4.7,5.1-8.5,9.1-12.2,13.1
	c-2.1-1.9-4.2-3.8-6.1-5.5c0-13.2,0-26,0-38.7c1.8-1.9,3.5-3.7,5.3-5.6c-3.8-3.8-7.4-7.4-11-10.9c-3.7,3.6-7.3,7.2-11.1,10.9
	c1.9,2.1,3.6,4,5.3,6c0,13.8,0,27.5,0,41.3C685.1,163.6,691.3,169.6,699,177z M750,156.9c6.6,6.6,12.8,12.7,18.9,18.8
	c6.9-7,14-14.2,21.2-21.5c0-11.5,0-23.2,0-33c-7.7-7.9-14.3-14.6-20.9-21.4c-2.7,1.8-4.4,5.2-8.2,7c0-8.3,0-16,0-23.2
	c-3.4,3.2-6.9,6.6-11,10.5C750,114.6,750,136.1,750,156.9z M639.2,93.8c0,21.8,0,43.9,0,65.8c-1.8,1.9-3.4,3.5-5.1,5.4
	c3.9,3.6,7.7,7.1,11.2,10.2c3.3-3.2,7.1-6.8,11.5-10.9c-2.2-1.6-4.2-3.1-6-4.5c0-26.1,0-51.6,0-77.5C646.7,86.3,643,89.9,639.2,93.8
	z M730.1,120c0,11,0,22,0,33.2c3.3,2.9,5.8,6.8,9.6,9.5c0-17.5,0-34.7,0-51.7C736.4,114.1,733.2,117,730.1,120z M669.1,163.7
	c0-15.5,0-29.7,0-42.4c-3.3-3.4-5.8-5.9-8.3-8.4c0,14.1,0,28.5,0,41.6C663.8,157.7,666,160.3,669.1,163.7z"/>
<path class="st1" d="M1206.8,857.3c-3.7,0-7.5,0-12.2,0c75.2-65.8,121.3-147.1,135.2-245.5c13.9-98.5-8-189.5-62-273.3
	c1.7-2.8,3.5-5.7,5.4-8.7C1383.6,485.4,1364.7,718.6,1206.8,857.3z"/>
<path class="st1" d="M1173.3,649.6c5.8-5.1,12-10.6,18.6-16.5c0,15.1,0,30.4,0,46.2c7.7-7,14.7-13.4,22-20.1
	c7.8,8.3,16,17.2,25.3,27.1c-11.2,10.4-23.2,21.7-35.7,33.2c16.4,15.8,32,30.8,47.9,46.1c-6.5,5.8-12.9,11.6-19.3,17.3
	c-4.8-4.9-10.6-10.9-16.5-17c2.1-3.8,6.5-6.4,9.2-10.6c-10.3-9.9-20.6-19.8-31.3-30c0,11.3,0,21.8,0,31.6c3.3,3.5,6,6.5,9.2,9.9
	c-6.3,5.5-12.7,11.1-19.2,16.8c-4.5-4.7-10.2-10.7-16.3-17c1.7-2.9,5.3-5.2,8-8.9C1174.6,722.4,1174,686.8,1173.3,649.6z
	 M1219.7,697.5c-6.4-7.2-12-13.3-17.1-19c-3.7,3.3-6.9,6.1-9.4,8.3c0,12.6,0,24.3,0,35.1C1202.2,713.6,1211.2,705.3,1219.7,697.5z"
	/>
<path class="st0" d="M594.8,113.4c0,9.7,0,19.5,0,30.1c3.1-3.7,5.8-6.8,8.3-9.8c8,8.3,15,15.6,22,22.8c-10.5,10.5-21.7,21.8-32.8,33
	c-9.3-9.4-18.6-18.9-28.5-28.9c0-21.1,0-43.3,0-64.6c10.1-10.3,19.8-20.1,29.2-29.6c11.2,11,22.5,22,33.7,33
	c-7.5,7.5-15,14.9-22.8,22.6c-2.7-3-5.4-6.1-8.2-9.1C595.5,113.1,595.2,113.2,594.8,113.4z M613.2,99.6
	c-6.7-6.6-13.4-13.1-19.8-19.4c-6.5,6.3-13.2,12.9-19.9,19.4c0,19.4,0,38.7,0,56.4c7,7.1,13.2,13.4,18.9,19.3
	c6.4-6.4,13-13.1,19.2-19.4c-2.3-2.4-4.9-5.2-8.3-8.8c-3.9,4.4-7.9,8.9-11.7,13.1c-2.5-2.3-4.5-4.2-6.4-5.9c0-21.5,0-42.9,0-65.6
	c7,7,13.1,13.2,19,19.3C607.4,105.1,610.3,102.3,613.2,99.6z"/>
<path class="st2" d="M932.7,665.1c-21.5-2.1-41.5-8.6-58.5-22.1c-36.2-28.9-50.8-66.7-40.5-111.7c10.2-44.8,39.7-72.8,84.7-82.7
	c43.2-9.5,87.1,9,112.1,45.6c0.8,1.2,1.8,2.4,2.6,3.6c-0.6,1.7-1.6,3.2-3.2,4.7c-3-4.6-5.8-9.1-9.3-13.1
	c-28.6-32.6-64.4-45.3-106.4-34.5c-42.2,10.8-68.1,39.3-76.6,82c-6.5,32.8,2.4,62.3,24.2,87.7c0.9,1.1,1.4,4.2,4.3,2.4l-0.1-0.1
	c-1.9,2.2,0.6,2.8,1.5,3.7c13.5,13,29.3,21.8,47.5,26.3c6.6,1.7,13.3,2.4,20.2,3.1C935,662.3,933.7,663.6,932.7,665.1z"/>
<path class="st1" d="M1113.7,688.5c0.4,23.5,0.8,46.8,1.3,70.5c2.8,2.7,5.9,5.7,9.5,9.1c-6.5,5.9-12.8,11.6-18.9,17.2
	c-5.2-5.4-11-11.5-17-17.7c2-2.1,4.8-5,7.3-7.6c0-16.2,0-32.2,0-48c-3.1-3-5.9-5.6-9-8.6c6.7-7,13.3-13.9,20.2-21.1
	C1109.4,684.5,1111.5,686.5,1113.7,688.5z"/>
<path class="st1" d="M1050.5,250.9c8.3,0,16.2,0,25.3,0c-19.2,26.3-37.9,51.9-57.1,78.3c-1.7-4.7-2.2-8.2-0.1-12.4
	C1029.4,295.1,1039.8,273.2,1050.5,250.9z"/>
<path class="st1" d="M1120.3,652.3c-4.4,4-9.2,8.5-14.5,13.3c-4.4-4.2-9.3-8.9-14.5-13.8c4.9-5.2,9.6-10,14.5-15.2
	C1110.7,641.9,1115.4,647,1120.3,652.3z"/>
<path class="st1" d="M1000.9,250.6c6.9,0,13.1,0,20.2,0c-4.6,9.5-9,18.5-13.9,28.5C1005,269.1,1003,260.1,1000.9,250.6z"/>
<path class="st1" d="M797.3,334.9c0.9,2.9,0.4,5,0.1,7.2C797.2,340,796.5,337.8,797.3,334.9z"/>
<path class="st1" d="M630.5,364.6c-0.7-0.3-1.5-0.6-2.2-0.9c1.1-1.3,2.1-0.9,3,0C631,364,630.8,364.3,630.5,364.6z"/>
<path class="st1" d="M1259.7,781.5c-0.5,0.6-0.9,1.2-1.4,1.8c-0.3-0.4-0.6-0.7-0.8-1.1c0.3-0.6,0.6-1.2,1.4-1.3
	C1259.1,781.1,1259.4,781.3,1259.7,781.5z"/>
<path class="st1" d="M631.7,365.3c-0.4-0.2-0.8-0.5-1.2-0.7c0.2-0.3,0.5-0.6,0.8-0.8c0.4,0.1,0.8,0.3,1.2,0.5
	C632.2,364.6,632,364.9,631.7,365.3z"/>
<path class="st1" d="M1258.8,780.8c0.1-0.5,0.3-0.8,0.9-0.6c0.4,0.4,0.2,0.8-0.1,1.2C1259.4,781.3,1259.1,781.1,1258.8,780.8z"/>
<path class="st3" d="M721.5,757.1c15-16.8,30-33.5,45-50.3c6-6.7,11.9-13.5,18.2-20.6c11.3,13.4,24.2,24.9,38.8,35
	c-2.5,5.4-4.8,10.7-7.6,15.7c-2.6,4.7-3.7,9.5-3,14.8c0.5,3.4,0.5,6.8,1.2,10.3c6.8-11.1,14.6-21.5,17.9-34.8
	c6.1,3.4,11.7,6.5,17.8,9.9c-29.7,50.5-59,101.1-89.9,151.4c-12.6-6.8-24.2-14.6-35.9-21.7c-0.3-2,0.8-3.1,1.4-4.4
	c22.9-47.3,45.8-94.6,68.8-142c0.8-1.6,1.5-3.3,2.3-5c0.1-0.4,0.1-0.8,0.2-1.2c-0.7-0.4-1,0-1.2,0.4c-14.1,15.7-28.2,31.4-42.3,47.2
	c-21.6,24.2-43.1,48.5-64.7,72.8c-0.7,0.7-1.3,1.5-2.1,2.2c-7.6-7.8-15-15.6-22.8-23.6c35.2-48.2,70.8-96.9,106.6-146
	c2.4,3.5,4.6,6.5,7,9.9c-7.4,10.2-14.8,20.2-22,30.3c-11.6,16-23.2,32.1-34.7,48.2c-0.5,0.6-0.9,1.1-1.4,1.7c-0.5,0.4,0.5,1.8,1,1
	C721,758.2,721.3,757.7,721.5,757.1z"/>
<path class="st3" d="M742.2,603c2.2,9.1,5.1,17.1,8.3,25.4c-7.8,5.1-15.5,10.1-23.3,15.1c0.1,0.3,0.3,0.7,0.4,1
	c8.5-2.6,16-7.7,24.8-11c1.2,2.5,2.3,5,3.6,7.8c-9.7,4.6-19.1,9.1-28.5,13.6c-16.4,7.8-32.6,15.9-49.2,23.2
	c-21.8,9.6-40.6,24-60.7,36.4c-5.4,3.3-10.7,6.8-16.4,10.5c-4.3-7.4-7.2-15.3-11.2-23.3C640.7,668.9,691.1,636.1,742.2,603z"/>
<path class="st3" d="M562.6,594.2c-0.7-9.2-1.2-17.6-1.9-26.7c58.6-3.2,116.9-6.4,175.9-9.6c0.2,8.7,0.9,17.3,2.1,26.6
	C680.1,587.7,621.6,590.9,562.6,594.2z"/>
<path class="st3" d="M566.3,489.5c0.8-4.1,1.5-7.6,2.3-11.7c59.4,4.3,118.6,8.5,178.3,12.8c-1.1,4.1-2.1,7.8-3.2,11.9
	C684.6,498.1,625.7,493.8,566.3,489.5z"/>
<path class="st3" d="M737.4,537.1c-0.2,3.9-0.4,7.4-0.7,11.7c-57.7-13.8-115-27.5-172.4-41.1c-1.1-2.1-0.1-4,0.1-6
	c0.2-1.8,0.6-3.5,1.1-5.9C622.8,509.5,679.8,523.2,737.4,537.1z"/>
<path class="st3" d="M847.2,681.4c-16.9-11.7-30-26.9-40.9-44.3c-6.1-9.8-11-20.2-14.6-31.1c-11.8-36.4-11.4-72.6,2.7-108.2
	c0.4-1.1,0.1-3.1,2.3-3c-7.9,19.9-12.6,40.4-12.1,62c1.1,49.7,21.3,90.1,59.7,121.4C847.3,680.9,850.7,682.2,847.2,681.4z"/>
<path class="st3" d="M1030.1,430c-2,0.7-2.9-1.1-4.1-1.9c-27.7-18.7-58.3-27.9-91.7-26.9c-35.3,1.1-66.8,13.1-94.2,35.5
	c-1,0.8-2.1,1.6-3.2,2.3c-0.1-2.4,2.1-3,3.5-4.1c24-19.4,51.3-31,82.1-34.1c38.3-3.9,73.2,5.3,105,26.9
	C1028.4,428.4,1029.6,428.8,1030.1,430z"/>
<path class="st0" d="M836,672.1c-5.4-4-10-8.8-14.1-14.1c1.7-0.6,2.2,1,2.8,1.8C829.6,665.8,846.4,679.4,836,672.1z"/>
<path class="st3" d="M834,440.9c-2.2,3.9-5.2,6.9-9.1,9.1C827.4,446.4,830.5,443.5,834,440.9z"/>
<path class="st3" d="M1046,444.1c-3-2-5.5-4.6-8.1-7.1C1041.8,438,1044.3,440.6,1046,444.1z"/>
<path class="st3" d="M823.1,453c-1.7,2-3.4,4.1-5.1,6.1C818.3,455.9,820.1,453.9,823.1,453z"/>
<path class="st3" d="M816.9,652c2.5,0.2,3,2.5,4.2,4.1C818.5,655.9,818.1,653.5,816.9,652z"/>
<path class="st3" d="M1038,437.1c-1.4-1.4-3.9-1.6-4.1-4.2C1035.6,434,1038,434.4,1038,437.1z"/>
<path class="st3" d="M1034.1,433c-2.2,0.1-3.6-1-4.1-3.1C1031.6,430.6,1033.1,431.5,1034.1,433z"/>
<path class="st3" d="M1049,447.1c-1-0.4-1.8-1.1-2.1-2.1C1048.6,444.7,1049.4,445.4,1049,447.1z"/>
<path class="st3" d="M824,450.9c0.9,1.3-0.4,1.6-1,2.2C822,451.8,823.2,451.4,824,450.9z"/>
<path class="st3" d="M836.1,440c-0.6,0.6-0.9,1.9-2.2,1C834.4,440.2,834.8,439,836.1,440z"/>
<path class="st0" d="M838.1,673c-1.3,0.9-1.7-0.2-2.2-1C837.2,671.1,837.5,672.3,838.1,673z"/>
<path class="st3" d="M821,655.9c0.8,0.5,2,0.9,1,2.2C821.2,657.6,820.1,657.2,821,655.9z"/>
<path class="st3" d="M1047.1,445.1c-0.7-0.1-1.1-0.4-1.2-1.1C1047.1,443.5,1047.5,443.9,1047.1,445.1z"/>
<path class="st3" d="M825.1,449.9c0.3,1,0.2,1.7-1.2,1.1C824,450.4,824.3,449.9,825.1,449.9z"/>
<path class="st3" d="M1050.1,448.1c-0.7-0.1-1.1-0.5-1.2-1.1C1050.2,446.5,1050.5,446.9,1050.1,448.1z"/>
<path class="st3" d="M837.1,439c-0.1,0.6-0.6,1-1.1,1.1C835.4,438.8,835.8,438.4,837.1,439z"/>
<path class="st3" d="M769.9,190.1c0.1-1.5,0.5-2.5,2.1-1.1C772,190.6,771.1,190.6,769.9,190.1z"/>
<path d="M699,177c-7.7-7.4-13.9-13.4-20.1-19.4c0-13.8,0-27.5,0-41.3c-1.7-1.9-3.5-3.9-5.3-6c3.8-3.7,7.4-7.3,11.1-10.9
	c3.6,3.6,7.2,7.2,11,10.9c-1.8,1.9-3.5,3.7-5.3,5.6c0,12.7,0,25.5,0,38.7c1.9,1.7,4,3.6,6.1,5.5c3.7-3.9,7.5-8,12.2-13.1
	c0-9.1,0-19.9,0-31.1c-1.5-1.7-3.3-3.7-5-5.7c3.7-3.8,7.3-7.4,10.9-11c3.8,3.7,7.4,7.3,11.2,11c-1.8,1.9-3.5,3.7-5.3,5.6
	c0,13.5,0,26.9,0,40.8c3.3,3.6,6.9,7.5,10,10.9c-2.7,2.9-5.2,5.6-8,8.7c-3.8-4.2-7.5-8.3-11.9-13.1C706.3,168.3,702.6,172.7,699,177
	z"/>
<path d="M750,156.9c0-20.8,0-42.2,0-62.7c4.1-3.9,7.6-7.3,11-10.5c0,7.2,0,14.9,0,23.2c3.9-1.7,5.6-5.2,8.2-7
	c6.6,6.8,13.2,13.5,20.9,21.4c0,9.8,0,21.5,0,33c-7.2,7.3-14.3,14.5-21.2,21.5C762.8,169.6,756.6,163.4,750,156.9z M761.4,109.5
	c0,15,0,30,0,44.2c2.5,2.4,4.6,4.4,6.5,6.3c3.6-3.3,7.4-6.8,10.7-9.9c0-8.7,0-16.6,0-23.7C772.5,120.5,767,115.1,761.4,109.5z"/>
<path d="M639.2,93.8c3.9-3.9,7.5-7.5,11.5-11.6c0,25.9,0,51.4,0,77.5c1.9,1.4,3.9,2.9,6,4.5c-4.4,4.2-8.2,7.8-11.5,10.9
	c-3.5-3.2-7.2-6.6-11.2-10.2c1.8-1.8,3.3-3.5,5.1-5.4C639.2,137.7,639.2,115.6,639.2,93.8z"/>
<path class="st3" d="M730.1,120c3.1-2.9,6.3-5.9,9.6-9c0,17,0,34.2,0,51.7c-3.8-2.7-6.3-6.5-9.6-9.5C730.1,142,730.1,131,730.1,120z
	"/>
<path class="st3" d="M669.1,163.7c-3-3.4-5.3-6-8.3-9.3c0-13,0-27.4,0-41.6c2.4,2.5,4.9,5,8.3,8.4
	C669.1,134,669.1,148.2,669.1,163.7z"/>
<path class="st3" d="M740.8,164.2c-0.4-0.2-0.8-0.5-1.2-0.7c1.1-1.4,1.6-0.6,2.1,0C741.5,163.7,741.1,164,740.8,164.2z"/>
<path class="st3" d="M741.8,165.2c-0.6-0.1-0.9-0.5-1-1c0.3-0.2,0.7-0.5,1-0.7c0.3,0.3,0.7,0.7,1,1
	C742.4,164.8,742.1,165,741.8,165.2z"/>
<path class="st3" d="M743.4,165.2c0.4,0.4,0.7,0.7,1.1,1.1c-0.3,0.3-0.5,0.7-0.8,1c-0.6-0.1-0.9-0.5-1-1
	C743,165.9,743.2,165.5,743.4,165.2z"/>
<path class="st3" d="M742.8,164.5c0.3,0.1,0.5,0.4,0.7,0.6c-0.2,0.4-0.5,0.7-0.7,1.1c-0.6-0.1-0.9-0.4-1-1
	C742.1,165,742.4,164.8,742.8,164.5z"/>
<path class="st3" d="M1219.7,697.5c-8.4,7.8-17.5,16.1-26.4,24.3c0-10.8,0-22.4,0-35.1c2.4-2.1,5.6-5,9.4-8.3
	C1207.7,684.2,1213.2,690.4,1219.7,697.5z"/>
<path d="M613.2,99.6c-2.9,2.7-5.8,5.4-8.9,8.4c-6-6-12.1-12.2-19-19.3c0,22.7,0,44.1,0,65.6c1.9,1.8,4,3.6,6.4,5.9
	c3.8-4.2,7.7-8.6,11.7-13.1c3.4,3.6,6,6.3,8.3,8.8c-6.2,6.2-12.8,12.9-19.2,19.4c-5.8-5.9-11.9-12.1-18.9-19.3c0-17.7,0-37,0-56.4
	c6.7-6.5,13.4-13.1,19.9-19.4C599.8,86.5,606.4,93,613.2,99.6z"/>
<path class="st1" d="M721.5,757.1c-0.2,0.6-0.5,1.1-1.2,1.2c-0.3-0.3-0.7-0.6-1-0.9c0.5-0.6,0.9-1.1,1.4-1.7
	C721,756.2,721.2,756.6,721.5,757.1z"/>
<path class="st1" d="M720.3,758.3c-0.5,0.8-1.3,0.8-2,0.4c-0.1-0.8,0.6-1,1-1.4C719.6,757.7,720,758,720.3,758.3z"/>
<path class="st1" d="M795.7,714.7c0.2-0.4,0.5-0.8,1.2-0.4c-0.1,0.4-0.1,0.8-0.2,1.2C796.3,715.2,796,715,795.7,714.7z"/>
<path class="st0" d="M761.4,109.5c5.6,5.6,11.2,11,17.2,16.9c0,7,0,15,0,23.7c-3.3,3.1-7.1,6.5-10.7,9.9c-1.9-1.8-4-3.8-6.5-6.3
	C761.4,139.5,761.4,124.5,761.4,109.5z"/>
<path class="st3" d="M783.6,555.8c-0.8-20.4,3.4-39.9,10.7-58.8c4.1-10.6,9.4-20.7,16-30c21.8-30.8,50.6-51.7,87.2-61.3
	c1.1-0.3,2.5-1.8,3.7,0.1c-20.4,5.3-39.5,13.6-56.2,26.6c-38.7,30.1-58.6,69.9-60.5,119.1C784.2,555.6,785.1,559.1,783.6,555.8z"/>
<path class="st3" d="M866,417.9c17.9-10.1,37.2-15.3,57.5-17.4c11.4-1.2,22.9-1.1,34.3,0.5c37.8,5.3,69.9,21.4,95.7,49.6
	c0.8,0.8,2.8,1.4,1.7,3.3c-14.3-15.8-30.7-28.9-50.2-37.9c-45-20.7-89.9-20.2-134.8,0.7C866.4,418.3,863.7,420.7,866,417.9z"/>
<path class="st3" d="M910.3,708.2c-19.9-2.9-38.1-10.5-55.2-21c-9.6-5.9-18.5-12.9-26.4-20.9c-26.2-26.8-41.5-58.7-44.7-96
	c-0.1-1.1-1.3-2.8,0.7-3.6c1.6,20.9,6.5,40.9,16.3,59.6c22.6,43.1,57.8,69.7,105.2,80.4C910.2,707.7,913.8,707.4,910.3,708.2z"/>
<g>
	<path class="st2" d="M937.4,659.1c-26.3-1.2-49.3-10.7-68.4-28.3c-1.5-1.2-5.7-5.5-6.4-6.3c-26.9-32.3-33.3-67.7-19.2-105.2
		c14.2-37.9,42.4-60.2,83.8-66.4c4.5-0.7,9.1-1,13.7-1c35.4,0,69.9,19.8,88,50.5l1.4,2.9l-0.5,0.7c-1.9,2.9-3.7,5.8-5.7,9l-1.4,2.2
		l-0.6,0.1c-18.8,4.7-37.5,9.5-51.8,13.2l-0.8,0.2l-0.6-0.6c-8.4-8.5-18-12.8-28.5-12.8c-1.9,0-3.9,0.1-5.9,0.4
		c-11.1,1.7-19.8,7.2-26.1,16.4c-6,8.7-8,19.3-5.7,29.6c2.3,10.5,8.7,19.3,17.9,24.7c5.6,3.3,12.5,5.2,19.4,5.2
		c16.2,0,29.6-9.5,36.7-26.2l0.6-1.5l1.4,0.8c3.2,1.8,6.4,3.4,10.5,5.5l1.5,0.8l-0.9,1.4c-17.3,27.2-34.1,54.7-51.3,84l-0.5,0.8
		L937.4,659.1z"/>
	<path class="st0" d="M940.9,453.4c34.9,0,68.8,19.4,86.7,49.8c0.3,0.6,0.6,1.2,1,2c-2.2,3.4-4.4,6.9-6.8,10.7
		c-17.1,4.3-34.3,8.7-51.8,13.2c-8.4-8.4-18.2-13.2-29.5-13.2c-2,0-4,0.1-6.1,0.4c-11.4,1.7-20.6,7.4-27.1,17
		c-12.9,18.9-7,44.8,12.7,56.5c5.6,3.4,12.7,5.4,20.2,5.4c14.3,0,29.7-7.4,38.1-27.1c3.3,1.8,6.6,3.5,10.5,5.5
		c-17.7,27.8-34.7,55.7-51.3,84c-26.1-1.2-48.5-10.4-67.5-27.9c-1.3-1-5.4-5.2-6.3-6.2c-25.8-31-33.1-65.9-18.9-103.7
		c14.2-37.8,42.7-59.5,82.6-65.4C931.9,453.7,936.4,453.4,940.9,453.4 M940.9,450.4v3V450.4c-4.7,0-9.4,0.3-13.9,1
		c-20.5,3-38.2,10.2-52.4,21.3c-14.4,11.3-25.4,26.8-32.6,46c-7.2,19.1-9.1,38-5.7,56c3.3,17.6,11.8,34.7,25.1,50.7l0,0l0,0
		c0.8,0.9,4.9,5.2,6.6,6.5c19.3,17.8,42.6,27.4,69.3,28.6l1.8,0.1l0.9-1.6c17.2-29.3,33.9-56.7,51.2-83.9l1.8-2.8l-2.9-1.5
		c-3.9-2-7.2-3.7-10.4-5.5l-2.9-1.6l-1.3,3c-6.9,16.1-19.8,25.3-35.4,25.3c-6.7,0-13.3-1.8-18.6-5c-8.9-5.3-15-13.7-17.2-23.8
		c-2.2-10-0.3-20.1,5.5-28.5c6-8.8,14.4-14.1,25.1-15.7c1.9-0.3,3.8-0.4,5.6-0.4c10.1,0,19.3,4.2,27.4,12.4l1.2,1.2l1.7-0.4
		c14.3-3.7,33.1-8.5,51.8-13.2l1.2-0.3l0.6-1l1-1.6c2-3.2,3.9-6.2,5.8-9.1l0.9-1.4l-0.8-1.5l-0.6-1.1l-0.4-0.9l0-0.1l-0.1-0.1
		C1011.8,470.5,976.8,450.4,940.9,450.4L940.9,450.4z"/>
</g>
<g>
	<path class="st1" d="M797.1,920.2C736.4,898,679,855.8,635.4,801.3c-50.1-62.5-79.3-138-84.6-218.2
		c-5.8-87.7,16.9-172.2,65.5-244.4c44.9-66.7,109.6-118.5,182.2-145.8l1.7-0.6l0.3,1.8c0.7,4-0.2,81.7-1,88.4l-0.3,2.5l-2.1-1.5
		c-3.4-2.5-3.8-5.9-3.9-9l-2.7-63.4l0-0.2c-0.1-0.8-0.1-1.6-0.1-2.5c-2.6,1-5.1,2.2-7.7,3.5l-0.8,0.4c0.5,13.7,1.5,42.1,1.5,42.1
		l-0.7,0.5c-0.2,0.1-0.3,0.2-0.5,0.3c-0.1,0.1-0.2,0.1-0.3,0.2l-1.3,0.9l-0.8-1.4c-6.3-10.6-12.5-21.2-18.9-32l-4.4,2.5
		c-5.3,3.1-10.6,6.1-15.8,9c0,0.3,0.2,0.6,0.6,1.2c0.2,0.3,0.4,0.6,0.6,1c13.8,24,27.9,48.2,41.6,71.7c1,1.7,2.1,3.9,2.2,6.7
		c1.1,30.8,2.5,63,3.5,88.9c0,0.2,0,0.3,0,0.5c0.1,0.7,0.2,1.8-0.7,3l-0.3,0.4l-0.5,0.1c-0.4,0.1-0.8,0.2-1.2,0.2
		c-1.3,0-2.5-0.7-3.4-1.2c-0.4-0.2-0.7-0.4-1-0.5l-24.7-11.5c-25.3-11.8-51.5-23.9-77.3-35.9c-2.4-1.1-4.6-2.4-7-4.4
		c-4.3-3.5-8.6-6.9-12.9-10.4c-7-5.6-14-11.3-21.1-17.1l-0.7,1C627,344,615,360.6,605.7,379.2c52.9,36.2,100.1,68.5,144.3,98.8
		c1.9-4,3.8-7.9,5.7-11.8c1.6-3.4,3.3-6.8,4.9-10.3c-1.4-1.4-3.1-2.5-4.7-3.5c-0.5-0.3-1-0.6-1.4-0.9c-25-17.1-50.4-34.5-74.9-51.3
		c-14.9-10.2-29.8-20.4-44.7-30.6c-0.8-0.5-1.6-1.2-2.4-1.8c-0.5-0.4-1.1-0.8-1.6-1.2l-1-0.7l0.6-1.1c0.2-0.3,0.3-0.6,0.5-0.8
		c0.1-0.1,0.2-0.2,0.2-0.3l0.6-1.3l1.3,0.6c29.2,13.4,58,26.6,85.7,39.4c1.7,0.9,3.2,2.1,4.6,3.1l0.2,0.1c9.9,8,20,16.2,29.7,24.1
		c4.5,3.6,8.9,7.3,13.4,10.9c0.5,0.4,1.1,0.8,1.6,1.3c0.3,0.2,0.6,0.5,1,0.7c0.9-1.3,1.7-2.6,2.6-3.8c0.7-1,1.4-2,2-3
		c-2.3-2.2-4.8-4-7.9-6.3l-2.9-2l3.5-0.7c0.6-0.1,1.2-0.2,1.8-0.2c2.6,0,4.5,1,6.4,2.1c1,0.5,2,1.1,3,1.4c1.5-1.7,2.9-3.5,4.4-5.2
		c4.9-5.9,10.1-12.1,16-17.5c-0.4-10-0.8-20.1-1.2-30.1c-0.4-10.7-0.9-21.4-1.3-32.2l-0.1-1.6l1.6,0.1c1.5,0.1,2.8,0.2,4.4,0.3
		c0.6,0.1,2.8,0.2,2.8,0.2l0.4,0.7c3.8,6.4,7.6,12.8,11.4,19.3c3.9,6.5,7.7,13.2,11.7,19.8c3.6-2.1,7.1-4.1,10.6-6.1
		c3.1-1.8,6.3-3.6,9.5-5.4c-3.1-5.4-6.2-10.7-9.4-16.1c-2.8-4.8-5.6-9.6-8.6-14.8l-0.3-0.6l0.2-0.6c1.8-6.1,4-13.6,6.2-21.1l0.3-1.1
		h1.1c0.3,0,0.5,0,0.8,0.1c0.1,0,0.3,0,0.4,0h1.2l0.3,1.2c2.3,10.4,4.7,20.7,7,31.1c1.5,6.6,3,13.3,4.5,20c1.7-0.4,3.3-1.3,5-2.1
		c1-0.5,2-1.1,3.1-1.5c-1.8-8-3.6-16.2-5.3-24.1c-3.5-16.2-7.1-33-11.4-49.3l-0.1-0.4l0.1-0.4c1.8-7.2,3.5-14.3,5.3-21.5
		c1.8-7.1,3.5-14.3,5.3-21.4l0.3-1.1h45.8l-0.1,1.6c-1.2,14.5-2.5,28.9-3.7,43.3c-1.8,21-3.6,42.1-5.4,63.3c3.1-0.4,5.9-1.3,8.8-2.2
		c2.8-33.3,5.9-68.8,9-104.4l0.1-1.4h41.7l-0.2,1.7c-4.8,33.4-9.5,65.8-14.4,100.1l1.6,0c10.3,0.2,21,0.5,31.7,2.2
		c2-11.6,4.1-23.1,6.1-34.7c4-22.3,7.9-44.5,11.8-66.8l0.2-1.2h3.1l0.3,1.4c3.5,14.8,7,29.7,10.5,44.4l0.1,0.5l-0.2,0.5
		c-3.1,6.4-6.1,12.7-9.2,19c-6,12.5-12.1,24.9-18.2,37.6c13.4,2.5,23.9,5.2,33.6,8.7c1-1.2,2-2.4,3-3.6l2.8-3.4l1.1,1.8
		c1.1,1.9,1.4,3.7,1.7,5.5c0.2,1,0.3,2.1,0.7,3l2.4,1.1c2.3,1,4.7,2.1,7.3,3.3c-1.2-5.4-2.2-10.5-3.4-16c-0.6-3-1.3-6.1-1.9-9.2
		l-0.1-0.7l18-24.7c16.7-22.9,33.5-45.9,50.5-69.1l0.5-0.6h33.2l-1.4,2.3c-25.7,43.1-51.4,86.1-76.4,127.8c3.6,2.4,7.2,4.9,11.1,7.5
		c14.6-24.6,29.2-49.1,43.8-73.6c12.4-20.9,24.8-41.7,37.2-62.6l0.1-0.2l0.2-0.2c1.2-0.9,2.4-1,3.2-1c0.4,0,0.7,0,1.1,0
		c0.3,0,0.6,0,0.9,0c12.1,0.1,24.6,0.2,37,0.2l0.9,0c1.8,0,4.8,0,6.6,3.3l0.4,0.8l-0.5,0.8c-34.4,51.4-90.1,143-113.8,182.1
		c-7,11.4-11.5,19-12.5,20.4c-0.3,0.5-0.5,0.8-0.7,1.1c-0.5,0.8-0.9,1.6-1.9,1.6c0,0,0,0,0,0c-1.1,0-1.5-0.9-2-1.8
		c-4.1-7.9-14-17.8-29.5-29.2c-28.3-19.5-53.2-27.8-83-27.8c-6.5,0-13.4,0.4-21,1.2c-30,3-57.3,14.4-81.3,33.8
		c-3.2,2.7-5.9,5.1-6.3,5.7l-0.1,0.1l0,0l-6.6,6.6c-5.3,5.8-11.8,13.2-12.2,13.7c-22.4,29.6-33,64.1-31.4,102.5
		c0.5,11.1,2.4,22.3,5.7,33.5c6.2,21,15.2,38.4,27.5,53l0,0c3.7,4.9,4.6,5.7,4.7,5.8l0.1,0.1l0,0l9.5,9.5l-0.4-0.3
		c4.2,3.9,8.5,7.5,10,8.8c17.6,14.3,38,24.4,60.5,30l5.8,1.4l0.1,1c0.3,2.1-0.7,3.5-1.5,4.6c-0.2,0.3-0.4,0.6-0.6,0.9
		c-36,61.6-69.7,116.2-103,167.1c-1.7,2.6-2.5,5.1-2.6,8c-0.4,9.9-1,19.9-1.6,29.6l-0.2,2.8L797.1,920.2z M725.7,866
		c3.5,2.2,7.1,4.4,10.6,6.6c7.5,4.7,15.2,9.6,23.4,14c22.6-36.8,44.7-74.4,66-110.8c7.4-12.7,14.9-25.4,22.4-38
		c-2.6-1.4-12.3-6.8-14.8-8.2c-2.9,10.2-8.4,18.9-13.7,27.2c-1.3,2-2.6,4.1-3.8,6.1l-2,3.3l-0.8-3.8c-0.4-2.1-0.6-4.2-0.8-6.2
		c-0.1-1.4-0.2-2.8-0.4-4.2c-0.7-5.6,0.3-10.8,3.2-15.8c1.7-3.1,3.2-6.4,4.8-9.8c0.7-1.5,1.4-3.1,2.2-4.7
		c-14.3-10-26.4-20.9-36.9-33.2c-5.9,6.6-11.5,13-17,19.3c-7.5,8.4-15,16.8-22.5,25.2s-15,16.7-22.5,25.1l-1.4,1.5l-1-1.7
		c-0.2-0.3-0.3-0.5-0.4-0.7c-0.1-0.2-0.2-0.4-0.4-0.7l-0.5-0.9l0.6-0.8c7.3-10.1,14.8-20.5,22-30.5c4.2-5.9,8.5-11.8,12.7-17.7
		c4.5-6.2,9-12.4,13.5-18.5c2.6-3.6,5.3-7.2,7.9-10.9c-1.5-2.2-3.1-4.5-5.2-7.3c-37.3,51-71,97.1-104.6,143.3
		c3.7,3.8,7.2,7.5,10.8,11.2c3.3,3.5,6.7,6.9,10,10.4c0.4-0.4,0.7-0.7,1.1-1.1c7.4-8.4,14.9-16.8,22.4-25.2
		c13.8-15.6,28.1-31.7,42.3-47.5c13.9-15.9,28.2-31.8,42-47.2l1.1-1.3l1.1,1.1c0.1,0.1,0.2,0.2,0.3,0.2c0.2,0.1,0.5,0.3,0.7,0.6
		l0.7,0.7l-0.4,1c-0.4,0.8-0.8,1.7-1.1,2.5c-0.4,0.8-0.8,1.7-1.2,2.5c-9.2,19-18.4,38-27.7,57.1c-13.5,27.8-27.4,56.6-41.1,84.9
		c-0.1,0.3-0.3,0.7-0.5,1C726,864.9,725.7,865.4,725.7,866z M592,702.3c1.3,2.6,2.4,5.3,3.6,7.8c2,4.5,3.9,8.7,6.2,12.8
		c1.7-1.1,3.3-2.1,4.9-3.1c3.5-2.3,6.8-4.4,10.3-6.5c5.9-3.7,11.9-7.6,17.6-11.4c13.7-9,27.8-18.3,43.3-25.1
		c11.8-5.2,23.7-10.9,35.1-16.4c4.7-2.3,9.3-4.5,14-6.7c9-4.3,17.9-8.6,27.2-13c-0.3-0.6-0.6-1.2-0.8-1.8c-0.5-1.1-1-2.3-1.5-3.4
		c-3.2,1.3-6.3,2.9-9.3,4.4c-4.6,2.3-9.3,4.6-14.3,6.1l-1.4,0.4l-0.5-1.4c0-0.1-0.1-0.2-0.2-0.4c-0.1-0.2-0.2-0.4-0.2-0.6l-0.4-1.1
		l1-0.6c3-2,6.1-3.9,9.1-5.9c4.4-2.8,8.8-5.7,13.2-8.5c-2.7-6.9-5.4-14.3-7.5-22.5c-19.6,12.7-39.1,25.4-58.6,38.1
		C652.4,663.1,622.2,682.7,592,702.3z M562.3,568.8c0.6,8.5,1.2,16,1.7,23.8c25.7-1.4,51.3-2.9,76.9-4.3c32.1-1.8,64-3.5,96.1-5.4
		c-0.8-7-1.6-15.1-1.9-23.6c-40.8,2.2-81.3,4.4-121.7,6.6L562.3,568.8z M565.4,506.4c68.4,16.4,120.9,28.9,169.9,40.5
		c0.2-3.3,0.3-5.9,0.5-8.7l-12.5-3c-52.3-12.6-104.4-25.1-156.6-37.6c-0.1,0.4-0.1,0.7-0.2,1.1c-0.2,1.2-0.5,2.2-0.6,3.2
		c-0.1,0.6-0.2,1.2-0.3,1.7C565.4,504.6,565.2,505.5,565.4,506.4z M568.1,488.1c48.5,3.5,96.7,7,144.9,10.5l29.5,2.1
		c0.3-1.1,0.6-2.1,0.8-3.1c0.5-1.9,1-3.8,1.6-5.8c-27.8-2-55.5-4-83.1-6c-30.7-2.2-61.3-4.4-92-6.6
		C569.2,482.4,568.7,485.1,568.1,488.1z"/>
	<path class="st0" d="M799,194.3c0.6,3.6-0.2,81.2-1,88c-2.8-2-3.2-4.8-3.3-7.8c-0.9-21.1-1.8-42.3-2.7-63.4
		c-0.1-1.5-0.2-2.9-0.2-4.7c-4,1.2-7.6,3.1-11.5,5c0.5,14,1,28.1,1.5,42.2c-0.3,0.2-0.5,0.3-0.8,0.5c-6.5-11-13-22-19.7-33.3
		c-7.5,4.3-14.8,8.5-22,12.6c-0.6,1.8,0.7,2.7,1.3,3.8c13.8,23.9,27.7,47.8,41.6,71.7c1.1,1.9,1.9,3.8,2,6
		c1.1,29.6,2.3,59.3,3.5,88.9c0,0.8,0.3,1.6-0.4,2.5c-0.2,0.1-0.5,0.1-0.7,0.1c-1.4,0-2.6-1.1-3.8-1.6
		c-34-15.8-67.9-31.6-101.9-47.3c-2.5-1.1-4.6-2.5-6.7-4.2c-11.6-9.4-23.3-18.8-35.2-28.5c-12.7,17.6-25.4,34.9-35.2,54.9
		c48.7,33.3,97.5,66.7,146.8,100.5c4.1-8.5,7.9-16.5,11.8-24.6c-2-2.3-4.7-3.8-7.1-5.4c-39.8-27.3-79.7-54.5-119.6-81.8
		c-1.4-0.9-2.6-2-4-3c0.2-0.4,0.5-0.7,0.7-1.1c28.6,13.1,57.1,26.2,85.7,39.4c1.6,0.8,3.1,2,4.5,3.1c14.4,11.6,28.7,23.3,43.1,35
		c1.2,0.9,2.3,1.8,3.9,3c2.1-3.2,4.2-6.1,6.2-9.1c-2.7-2.8-5.6-4.9-9-7.3c0.5-0.1,1-0.1,1.5-0.1c3.8,0,6.3,2.8,10,3.6
		c6.8-7.9,13.3-16.5,21.4-23.8c-0.8-21-1.7-41.9-2.5-63c2.1,0.1,3.9,0.3,6.3,0.5c7.8,13.2,15.7,26.7,23.8,40.4
		c7.6-4.4,14.9-8.5,22.7-13c-6.1-10.5-12.1-20.7-18.8-32.2c1.8-6.1,4-13.6,6.2-21.1c0.4,0,0.8,0.1,1.2,0.1
		c3.9,17.4,7.9,34.8,11.9,52.5c4-0.5,7-3,11-4.5c-5.7-25-10.5-50.1-17-74.7c3.5-14.3,7.1-28.6,10.6-42.9c14.5,0,28.5,0,43,0
		c-3.1,36.2-6.2,72-9.3,108.4c4.3-0.3,8-1.5,11.9-2.7c3-35.1,6-70.1,9.1-105.4c12.8,0,25.3,0,38.6,0c-4.9,33.9-9.7,67.5-14.6,101.8
		c12.1,0.3,24,0.4,36.2,2.5c6.1-34.5,12.2-68.7,18.2-102.9c0.2,0,0.5,0,0.7,0c3.5,14.9,7,29.8,10.5,44.6
		c-9.4,19.4-18.7,38.7-28.3,58.4c12.6,2.3,24.6,5.1,36.3,9.4c1.7-2,3.3-4,5.1-6.2c1.7,2.8,1.3,5.8,2.5,8.9c3.8,1.7,8,3.6,13,5.8
		c-2.1-9.6-3.9-18.5-5.9-28c22.5-30.8,45.2-61.9,68.1-93.2c9.3,0,19.1,0,29.8,0c-25.8,43.3-51.3,85.9-77.1,129
		c4.4,3,8.7,5.9,13.6,9.2c27.3-46,54.6-91.8,81.8-137.6c0.7-0.6,1.5-0.7,2.3-0.7c0.6,0,1.3,0.1,2,0.1c12.3,0.1,24.7,0.2,37,0.2
		c0.3,0,0.6,0,0.9,0c2,0,4,0.2,5.3,2.5c-44.2,66.1-122.2,196.3-126.3,202.5c-0.9,1.3-1.2,2-1.4,2c-0.9,0-1.6-9.3-30.6-30.7
		c-30.1-20.7-55.2-28.1-83.9-28.1c-6.8,0-13.8,0.4-21.1,1.2c-30.8,3.1-58.1,14.7-82.1,34.1c-1.3,1.1-5.9,5-6.6,5.9
		c-3.6,2.8-18.1,19.5-18.8,20.4c-23.2,30.6-33.3,65.3-31.7,103.5c0.5,11.5,2.5,22.8,5.8,33.9c5.8,19.6,14.5,37.7,27.8,53.5l-0.1-0.1
		c1.2,1.6,4.2,5.5,5.1,6.2c4.2,5.3,18,17,19.1,18c18.1,14.7,38.5,24.7,61.1,30.3c1.6,0.4,3.2,0.8,4.8,1.2c0.3,2-1.1,3.1-1.9,4.5
		c-33,56.5-67.1,112.3-103,167c-1.8,2.8-2.7,5.5-2.8,8.8c-0.4,10.1-1,20.2-1.6,30.4C683.8,877.2,563.7,756.5,552.3,583
		C540.1,398.3,656.2,248,799,194.3 M743.6,502.4c1.1-4.1,2.1-7.7,3.2-11.9c-59.6-4.3-118.8-8.5-178.3-12.8
		c-0.7,4.2-1.4,7.7-2.2,11.8C625.7,493.8,684.6,498.1,743.6,502.4 M736.7,548.8c0.2-4.3,0.4-7.8,0.7-11.7
		c-57.5-13.8-114.6-27.5-171.9-41.3c-0.4,2.3-0.9,4.1-1.1,5.9c-0.2,1.9-1.2,3.9-0.1,6C621.6,521.4,679,535.1,736.7,548.8
		 M562.6,594.2c59-3.3,117.4-6.5,176.1-9.8c-1.1-9.3-1.9-17.8-2.1-26.6c-59,3.2-117.3,6.4-175.9,9.6
		C561.4,576.6,562,585,562.6,594.2 M601.3,725.1c5.8-3.7,11-7.2,16.4-10.5c20.1-12.4,38.9-26.8,60.7-36.4
		c16.6-7.3,32.8-15.4,49.2-23.2c9.4-4.5,18.8-9,28.5-13.6c-1.3-2.8-2.4-5.3-3.6-7.8c-8.7,3.4-16.3,8.4-24.8,11
		c-0.1-0.3-0.3-0.7-0.4-1c7.7-5,15.5-10,23.3-15.1c-3.3-8.5-6.2-16.4-8.4-25.5c-51.1,33.2-101.5,65.9-152.1,98.8
		C594.1,709.9,596.9,717.8,601.3,725.1 M686.8,837c0.7-0.8,1.4-1.5,2.1-2.2c21.6-24.3,43.1-48.6,64.7-72.8
		c13.9-15.9,28-31.6,42.1-47.3c0.3,0.3,0.7,0.5,1,0.8c-0.8,1.7-1.5,3.3-2.3,5c-22.9,47.3-45.9,94.6-68.8,142
		c-0.6,1.3-1.7,2.5-1.4,4.4c11.7,7.1,23.2,14.9,35.9,21.7c30.9-50.3,60.1-100.9,89.9-151.4c-6.1-3.4-11.7-6.5-17.8-9.9
		c-3.3,13.3-11.1,23.7-17.9,34.8c-0.7-3.5-0.7-6.9-1.2-10.3c-0.7-5.3,0.3-10.1,3-14.8c2.8-5,5-10.4,7.6-15.7
		c-14.6-10.1-27.5-21.5-38.8-35c-6.3,7.1-12.3,13.9-18.2,20.6c-15,16.8-30,33.5-45,50.3c-0.3-0.5-0.5-0.9-0.8-1.4
		c11.6-16,23.1-32.1,34.7-48.2c7.3-10.1,14.6-20.1,22-30.3c-2.3-3.3-4.5-6.4-7-9.9c-35.9,49.1-71.5,97.8-106.6,146
		C671.8,821.4,679.2,829.2,686.8,837 M833.9,441.2l-0.1,0.1C833.8,441.3,833.8,441.3,833.9,441.2
		C833.9,441.2,833.9,441.2,833.9,441.2 M821.8,658.5l0.1,0.1C821.9,658.6,821.9,658.6,821.8,658.5
		C821.8,658.5,821.8,658.5,821.8,658.5 M801.4,190.2l-3.4,1.3c-72.9,27.4-137.8,79.4-182.9,146.4c-48.8,72.5-71.5,157.4-65.7,245.3
		c5.3,80.5,34.6,156.3,84.9,219C678,857,735.7,899.4,796.6,921.6l3.8,1.4l0.2-4l0.1-0.9c0.6-9.7,1.2-19.7,1.6-29.6
		c0.1-2.7,0.8-4.9,2.3-7.3c33.4-50.9,67.1-105.6,103.1-167.1c0.1-0.2,0.3-0.5,0.5-0.8c0.9-1.2,2.1-3,1.7-5.7l-0.3-2l-1.9-0.5
		l-1.6-0.4l-3.2-0.8c-22.3-5.5-42.5-15.5-59.9-29.7c-1.3-1.1-4.9-4.1-8.5-7.5l-10.3-10.3l-0.1-0.1l-0.3-0.2
		c-0.2-0.2-1.1-1.2-4.5-5.6l-0.2,0.2l0.2-0.2C807,636.1,798.1,619,792,598.1c-3.3-11.1-5.2-22.2-5.7-33.2
		c-1.6-38.1,8.9-72.2,31.1-101.6c0.6-0.7,6.6-7.7,11.7-13.2l6.8-6.8l0.1-0.1l0.2-0.3c0.5-0.6,3.1-2.9,6.1-5.4
		c23.8-19.2,50.8-30.4,80.5-33.4c7.6-0.8,14.4-1.1,20.8-1.1c29.5,0,54,8.2,82.1,27.5c15.3,11.3,25,21,29,28.7c0.5,1,1.3,2.6,3.3,2.6
		c1.9,0,2.7-1.4,3.2-2.3c0.2-0.3,0.4-0.6,0.7-1.1c0.9-1.4,5.3-8.6,12.5-20.5c23.8-39.1,79.4-130.6,113.8-182l1-1.5l-0.9-1.6
		c-2.2-4-6.1-4-7.9-4l-0.5,0l-0.4,0c-12.4,0-24.9-0.1-37-0.2c-0.3,0-0.6,0-0.8,0c-0.3,0-0.7,0-1.2,0c-1.1,0-2.6,0.1-4.1,1.3
		l-0.5,0.4l-0.3,0.5c-12.4,20.9-24.9,41.8-37.3,62.8c-14,23.6-28.6,48-42.9,72.1c-2.9-2-5.8-3.9-8.6-5.8
		c24.7-41.3,50.2-83.9,75.6-126.6l2.7-4.5h-5.3h-29.8h-1.5l-0.9,1.2c-16.9,23.1-33.9,46.4-50.4,69l-17.7,24.2l-0.8,1.1l0.3,1.3
		c0.7,3.1,1.3,6.2,1.9,9.2c0.9,4.3,1.8,8.6,2.7,13.1c-1.6-0.7-3.1-1.4-4.6-2.1l-1.8-0.8c-0.2-0.7-0.3-1.4-0.4-2.2
		c-0.3-1.9-0.7-4-1.9-6.1l-2.2-3.6l-2.7,3.3c-0.5,0.6-1,1.2-1.4,1.8c-0.8,1-1.5,1.9-2.3,2.8c-9-3.2-18.8-5.7-30.9-8.1
		c5.9-12.1,11.7-24.2,17.4-35.9c3.1-6.3,6.1-12.7,9.2-19l0.5-1l-0.2-1c-3.5-14.8-7.1-30-10.5-44.6l-0.5-2.3h-2.4h-0.7h-2.5l-0.4,2.5
		c-3.9,22.3-7.9,45.1-11.8,67.1c-1.9,11-3.9,21.9-5.8,32.9c-10.3-1.5-20.4-1.8-30.3-2c4.8-33.7,9.4-65.6,14.1-98.5l0.5-3.4h-3.5
		h-38.6h-2.7l-0.2,2.7c-3.1,35.2-6.1,70.3-8.9,103.4c-1.9,0.6-3.8,1.1-5.8,1.5c1.8-20.6,3.5-41,5.3-61.4c1.2-14.4,2.5-28.8,3.7-43.3
		l0.3-3.3h-3.3h-43h-2.4l-0.6,2.3c-1.7,7.1-3.6,14.4-5.3,21.4c-1.7,7-3.6,14.3-5.3,21.5l-0.2,0.7l0.2,0.7c4.3,16.2,7.9,33,11.4,49.2
		c1.6,7.5,3.3,15.3,5,22.9c-0.7,0.3-1.4,0.7-2.1,1.1c-1.1,0.6-2.2,1.1-3.2,1.5c-1.4-6.2-2.8-12.3-4.2-18.4
		c-2.3-10.2-4.7-20.7-7-31.1l-0.5-2.3h-2.4c-0.1,0-0.1,0-0.2,0c-0.2,0-0.6-0.1-1-0.1h-2.2l-0.6,2.2l-0.1,0.2
		c-2.2,7.4-4.4,14.8-6.1,20.9l-0.4,1.2l0.7,1.1c3,5.1,5.8,10,8.6,14.7c2.9,5,5.8,10,8.7,14.9c-2.8,1.6-5.5,3.1-8.2,4.7
		c-3.1,1.7-6.2,3.5-9.4,5.4c-3.7-6.2-7.3-12.4-11-18.6c-3.8-6.5-7.6-12.9-11.3-19.2l-0.8-1.3l-1.5-0.1c-0.7-0.1-1.4-0.1-2-0.2
		c-1.5-0.1-2.9-0.3-4.4-0.3l-3.3-0.2l0.1,3.3c0.4,10.8,0.8,21.6,1.3,32.1c0.4,9.7,0.8,19.6,1.2,29.5c-5.8,5.4-10.8,11.4-15.6,17.2
		c-1.2,1.5-2.5,2.9-3.7,4.4c-0.6-0.3-1.2-0.6-1.9-0.9c-2-1-4.2-2.2-7.1-2.2c-0.7,0-1.4,0.1-2.1,0.2l-6.9,1.3l5.8,4.1
		c2.7,1.9,4.8,3.5,6.8,5.3c-0.4,0.6-0.9,1.3-1.3,1.9c-0.6,0.8-1.1,1.6-1.7,2.5c-0.5-0.4-0.9-0.7-1.3-1c-4.4-3.6-8.9-7.2-13.3-10.8
		c-9.7-7.9-19.8-16.1-29.8-24.2l-0.2-0.2c-1.4-1.1-3-2.4-4.8-3.3l0,0l0,0c-27.7-12.8-56.5-26-85.7-39.4l-2.6-1.2l-1.3,2.6
		c0,0-0.1,0.1-0.1,0.1c-0.2,0.2-0.4,0.5-0.6,1l-1.1,2.3l2.1,1.5c0.5,0.4,1,0.8,1.6,1.2c0.8,0.6,1.6,1.3,2.5,1.9
		c14.9,10.2,29.7,20.3,44.6,30.5c24.6,16.8,50,34.2,75,51.3c0.5,0.3,1,0.6,1.5,1c1.3,0.9,2.6,1.7,3.7,2.6c-1.5,3.1-3,6.2-4.4,9.3
		c-1.6,3.4-3.2,6.8-4.9,10.2c-43.4-29.8-89.9-61.6-141.8-97.1c9-17.8,20.2-33.3,31.9-49.6c6.7,5.4,13.4,10.8,19.9,16.1
		c4.3,3.5,8.6,6.9,12.9,10.4c2.6,2.1,4.8,3.5,7.4,4.6c25.8,11.9,52,24.1,77.3,35.9c8.2,3.8,16.3,7.6,24.5,11.4l0,0l0,0
		c0.2,0.1,0.5,0.3,0.8,0.5c1,0.6,2.4,1.4,4.1,1.4c0.5,0,1.1-0.1,1.6-0.2l0.9-0.3l0.6-0.8c1.3-1.6,1.1-3.3,1.1-4c0-0.1,0-0.2,0-0.3
		v-0.1l0-0.1c-1-25.9-2.4-58.1-3.5-88.9c-0.1-3.1-1.4-5.6-2.4-7.4l0-0.1c-13.6-23.5-27.8-47.7-41.5-71.6c-0.2-0.3-0.3-0.6-0.5-0.8
		c4.7-2.7,9.5-5.4,14.3-8.2l3.2-1.8c6.2,10.4,12.2,20.6,18.2,30.8l1.6,2.7l2.6-1.8c0.1-0.1,0.2-0.1,0.3-0.2c0.2-0.1,0.3-0.2,0.5-0.3
		l1.4-0.9l-0.1-1.7c-0.5-13.4-1-26.9-1.4-40.3c1.9-0.9,3.7-1.8,5.6-2.6c0,0.2,0,0.3,0,0.5l0,0.2l1.3,31.7l1.3,31.7
		c0.1,2.4,0.2,7,4.6,10.1l4.1,3l0.6-5c0.8-6.7,1.7-84.8,1-88.8L801.4,190.2L801.4,190.2z M569.9,486.8c0.4-1.9,0.7-3.8,1.1-5.9
		c30.3,2.2,60.5,4.3,90.7,6.5c27.1,1.9,54.2,3.9,81.3,5.8c-0.4,1.4-0.7,2.7-1.1,4.1c-0.2,0.6-0.3,1.3-0.5,1.9l-27-2
		C667.1,493.8,618.3,490.3,569.9,486.8L569.9,486.8z M566.8,505.2c0-0.3,0.1-0.8,0.2-1.3c0.1-0.6,0.3-1.2,0.3-1.9
		c0.1-0.8,0.3-1.6,0.4-2.6c52.2,12.6,105.2,25.3,156.5,37.6l9.8,2.4c-0.1,1.8-0.2,3.6-0.3,5.6C685.5,533.5,633.7,521.2,566.8,505.2
		L566.8,505.2z M563.9,570.2l49.9-2.7c39.9-2.2,79.7-4.4,119.9-6.5c0.3,7.4,1,14.4,1.7,20.6c-31.6,1.8-63.5,3.5-94.5,5.3
		c-25.1,1.4-50.2,2.8-75.5,4.2C564.9,584.2,564.5,577.6,563.9,570.2L563.9,570.2z M593.9,702.9c30-19.5,59.9-38.9,89.9-58.4
		c18.8-12.2,37.6-24.4,56.5-36.7c1.9,7.1,4.3,13.5,6.6,19.5c-4.1,2.7-8.2,5.3-12.1,7.9c-3,2-6.1,3.9-9.1,5.9l-1.9,1.3l0.7,2.2
		c0.1,0.2,0.2,0.5,0.3,0.7c0,0.1,0.1,0.2,0.1,0.3l0.9,2.8l2.8-0.9c5.1-1.6,9.9-3.9,14.5-6.2c2.6-1.3,5.2-2.6,7.9-3.8
		c0.3,0.7,0.6,1.3,0.9,2c0.1,0.2,0.1,0.3,0.2,0.5c-8.8,4.2-17.4,8.3-25.8,12.3c-4.7,2.2-9.4,4.5-14,6.7
		c-11.4,5.5-23.3,11.2-35.1,16.4c-15.6,6.9-29.8,16.2-43.5,25.3c-5.7,3.8-11.7,7.7-17.6,11.3c-3.5,2.1-6.8,4.3-10.3,6.6
		c-1.1,0.7-2.3,1.5-3.5,2.3c-2-3.6-3.6-7.4-5.4-11.3C596,707.4,595,705.1,593.9,702.9L593.9,702.9z M667.9,813.1
		c33-45.2,66.1-90.6,102.7-140.6c1.2,1.7,2.3,3.3,3.3,4.7c-2.4,3.3-4.8,6.7-7.2,10c-4.4,6.1-9,12.4-13.5,18.6
		c-4.3,5.9-8.5,11.9-12.8,17.8c-7.2,10-14.6,20.3-21.9,30.4l-1.2,1.6l1,1.7c0.1,0.2,0.2,0.4,0.3,0.6c0.1,0.3,0.3,0.5,0.5,0.8
		l2.1,3.5l2.7-3c7.5-8.4,15-16.8,22.5-25.1c7.5-8.4,15-16.8,22.5-25.2c6.2-7,11.2-12.7,15.9-18c10.1,11.6,21.6,21.9,35,31.4
		c-0.6,1.2-1.1,2.4-1.6,3.5c-1.6,3.4-3,6.6-4.8,9.7c-3,5.3-4.1,10.7-3.4,16.7c0.2,1.4,0.3,2.7,0.4,4.2c0.2,2,0.4,4.1,0.8,6.3
		l1.5,7.5l4-6.5c1.2-2,2.6-4.1,3.8-6.1c5.1-8,10.3-16.2,13.4-25.8c1.9,1,3.7,2.1,5.6,3.1c2.1,1.1,4.1,2.3,6.2,3.5
		c-7.2,12.3-14.5,24.7-21.6,36.7c-21.1,36-42.9,73.1-65.2,109.5c-7.6-4.2-14.9-8.8-22-13.3c-3.1-2-6.3-4-9.6-6
		c0.1-0.1,0.2-0.3,0.3-0.5c0.2-0.3,0.4-0.7,0.6-1.1c13.7-28.3,27.6-57.1,41.1-84.9c9.2-19,18.5-38.1,27.7-57.1
		c0.4-0.9,0.8-1.7,1.2-2.6c0.4-0.8,0.7-1.6,1.1-2.5l0.9-1.9l-1.5-1.5c-0.3-0.3-0.6-0.6-0.9-0.7c-0.1,0-0.1-0.1-0.2-0.1l-2.2-2.2
		l-2.1,2.4c-13.9,15.4-28.2,31.4-42.1,47.3c-14.1,15.8-28.4,31.9-42.3,47.5c-7.4,8.4-14.9,16.7-22.3,25.1c-3-3.1-6-6.2-8.9-9.3
		C674.6,820.1,671.3,816.6,667.9,813.1L667.9,813.1z"/>
</g>
<path class="st4" d="M1055.4,454.7"/>
</svg>
